<svg width="56" height="57" viewBox="0 0 56 57" fill="none" xmlns="http://www.w3.org/2000/svg">
<path d="M27.7036 56.0516C43.0039 56.0516 55.4073 43.7163 55.4073 28.4999C55.4073 13.2835 43.0039 0.948242 27.7036 0.948242C12.4033 0.948242 0 13.2835 0 28.4999C0 43.7163 12.4033 56.0516 27.7036 56.0516Z" fill="#26A17B"/>
<path d="M30.657 31.0423V31.0379C30.4654 31.0512 29.4767 31.1088 27.2764 31.1088C25.5171 31.1088 24.2833 31.0601 23.8469 31.0379V31.0423C17.0813 30.7456 12.0349 29.5762 12.0349 28.172C12.0349 26.7723 17.0857 25.5984 23.8469 25.3017V29.8774C24.2878 29.9084 25.5572 29.9837 27.3076 29.9837C29.4099 29.9837 30.461 29.8951 30.657 29.8774V25.3061C37.4092 25.6073 42.4421 26.7767 42.4421 28.1764C42.4421 29.5762 37.4047 30.7456 30.657 31.0468M30.657 24.8321V20.7393H40.0771V14.498H14.4312V20.7393H23.8513V24.8321C16.1949 25.1821 10.4404 26.6881 10.4404 28.4954C10.4404 30.3026 16.1994 31.8087 23.8513 32.163V45.2833H30.6614V32.163C38.3044 31.8131 44.05 30.307 44.05 28.4998C44.05 26.697 38.3044 25.1865 30.6614 24.8366" fill="white"/>
</svg>
