<svg width="148" height="29" viewBox="0 0 148 29" fill="none" xmlns="http://www.w3.org/2000/svg">
<path d="M123.041 10.454L118.82 10.0319V4.75488H115.161V6.72496C115.161 10.8058 116.779 12.213 118.749 12.8463H115.161V17.7011C115.161 22.4152 117.483 24.3149 121.986 24.3149C126.489 24.3149 128.811 22.4152 128.811 17.7011V17.0678C128.881 11.4391 125.856 10.7355 123.041 10.454ZM125.223 21.008H118.82V12.9166C119.523 13.1277 120.297 13.2684 121.001 13.3388L125.223 13.972V21.008ZM133.877 4.75488C132.751 4.75488 131.977 5.52884 131.977 6.6546C131.977 7.78035 132.751 8.55431 133.877 8.55431C135.003 8.55431 135.777 7.78035 135.777 6.6546C135.847 5.52884 135.073 4.75488 133.877 4.75488ZM142.672 10.3837V7.07675H139.083C139.083 11.7909 141.405 13.6906 145.908 13.6906H147.386V10.3837H142.672ZM142.672 13.2684H139.083V17.7011C139.083 22.4152 141.405 24.3149 145.908 24.3149H147.386V21.008H142.672V13.2684ZM132.118 24.3149H135.777V10.3837H132.118V24.3149Z" fill="#EABC4C"/>
<path d="M71.2564 10.4539L67.0348 10.0318V4.75479H63.3761V6.72486C63.3761 10.8057 64.9943 12.2129 66.9644 12.8462H63.3761V24.3148H67.0348V12.9165C67.7384 13.1276 68.5123 13.2683 69.2159 13.3387L73.4375 13.9719V24.3148H77.0962V17.0677C77.0962 11.439 74.0708 10.7354 71.2564 10.4539ZM56.0587 21.0079H51.6964V10.3836H48.0377V17.701C48.0377 22.4151 50.3595 24.3148 54.8625 24.3148H59.647V10.3836H56.0587V21.0079ZM43.8161 10.3836H40.1574V17.701C40.1574 22.4151 42.4792 24.3148 46.9823 24.3148H48.4598V21.0079H43.7457V10.3836H43.8161ZM105.451 10.3836H98.6263V12.1426C98.6263 16.8567 100.948 18.7564 105.451 18.7564H112.276V16.9974C112.276 12.2129 109.954 10.3836 105.451 10.3836ZM108.688 15.7309H105.451H102.215V13.4794H108.617V15.7309H108.688ZM82.4436 4.75479C81.3178 4.75479 80.5439 5.52874 80.5439 6.6545C80.5439 7.78026 81.3178 8.55421 82.4436 8.55421C83.5693 8.55421 84.3433 7.78026 84.3433 6.6545C84.3433 5.52874 83.5693 4.75479 82.4436 4.75479ZM80.6142 24.3148H84.2729V10.3836H80.6142V24.3148ZM91.2385 13.2683H87.5798V17.701C87.5798 22.4151 89.9017 24.3148 94.4047 24.3148H95.8823V21.0079H91.2385V13.2683ZM91.2385 7.07666H87.5798C87.5798 11.7908 89.9017 13.6905 94.4047 13.6905H95.8823V10.3836H91.2385V7.07666ZM102.215 18.2639H98.5559C98.5559 22.4854 100.878 24.3148 105.381 24.3148H111.502V21.0079H102.144V18.2639H102.215ZM27.8444 0.603563C24.4671 0.603563 21.7231 3.34759 21.7231 6.72486H14.3353L20.4566 0.603563H12.9985C9.62123 0.603563 6.8772 3.34759 6.8772 6.72486H6.80684C3.42958 6.72486 0.685547 9.46889 0.685547 12.8462H6.8772V17.4195C6.8772 23.5408 11.8727 28.466 17.9237 28.466H29.1812V6.6545L35.3025 0.533203L27.8444 0.603563ZM21.4417 16.7863C20.527 15.8716 20.527 14.3941 21.4417 13.4794L24.7486 16.7863C23.8339 17.701 22.3563 17.701 21.4417 16.7863Z" fill="white"/>
</svg>
