<svg width="61" height="61" viewBox="0 0 61 61" fill="none" xmlns="http://www.w3.org/2000/svg">
<path d="M18.8894 25.7125L30.4829 14.0609L42.0825 25.7187L48.8283 18.9387L30.4829 0.5L12.1436 18.9325L18.8894 25.7125Z" fill="#F3BA2F"/>
<path d="M14.1256 30.4986L7.37988 23.7188L0.633794 30.4989L7.37955 37.2788L14.1256 30.4986Z" fill="#F3BA2F"/>
<path d="M18.8896 35.2879L30.483 46.9395L42.0821 35.2822L48.8318 42.0584L48.8285 42.0622L30.483 60.5004L12.1432 42.0684L12.1338 42.0589L18.8896 35.2879Z" fill="#F3BA2F"/>
<path d="M53.5869 37.2822L60.333 30.502L53.5873 23.7221L46.8412 30.5023L53.5869 37.2822Z" fill="#F3BA2F"/>
<path d="M37.326 30.4962H37.3288L30.4834 23.6162L25.4246 28.7006H25.4241L24.8432 29.2849L23.6442 30.49L23.6348 30.4995L23.6442 30.5095L30.4834 37.3833L37.3288 30.5033L37.3321 30.4995L37.326 30.4962Z" fill="#F3BA2F"/>
</svg>
