<svg width="106" height="35" viewBox="0 0 106 35" fill="none" xmlns="http://www.w3.org/2000/svg">
<path d="M69.0417 0C61.5153 0 54.7893 3.9755 54.7893 11.3206C54.7893 19.7439 66.718 20.3257 66.718 24.5574C66.718 26.3392 64.7143 27.9342 61.2921 27.9342C56.4353 27.9342 52.8053 25.7055 52.8053 25.7055L51.2521 33.1175C51.2521 33.1175 55.4338 35 60.9856 35C69.2144 35 75.6894 30.8293 75.6894 23.3587C75.6894 14.4578 63.711 13.8933 63.711 9.96563C63.711 8.56986 65.3559 7.04052 68.7683 7.04052C72.6185 7.04052 75.7598 8.66136 75.7598 8.66136L77.2799 1.50265C77.2799 1.50265 73.8619 0 69.0417 0ZM0.182244 0.540281L0 1.62084C0 1.62084 3.16638 2.21139 6.01821 3.38941C9.69018 4.74025 9.95176 5.52664 10.5702 7.96913L17.3091 34.4428H26.3426L40.2595 0.540281H31.2466L22.3042 23.5908L18.6552 4.0521C18.3206 1.81591 16.6255 0.540281 14.5506 0.540281H0.182244ZM43.8836 0.540281L36.8134 34.4428H45.4079L52.4533 0.540281H43.8836ZM91.8181 0.540281C89.7456 0.540281 88.6476 1.67099 87.8418 3.64689L75.2504 34.4428H84.2632L86.007 29.3102H96.9872L98.0475 34.4428H106L99.0623 0.540281H91.8181ZM92.9902 9.69971L95.6618 22.4216H88.5045L92.9902 9.69971Z" fill="white"/>
</svg>
