<svg width="58" height="57" viewBox="0 0 58 57" fill="none" xmlns="http://www.w3.org/2000/svg">
<path d="M56.8272 35.3404C52.9967 50.4889 37.4355 59.708 22.0697 55.9304C6.7101 52.1537 -2.64027 36.8099 1.19201 21.6624C5.02069 6.51213 20.5819 -2.70789 35.9433 1.06884C51.3082 4.84557 60.6577 20.1911 56.8272 35.3404Z" fill="#F7931A"/>
<path d="M41.6535 24.4708C42.2244 20.7082 39.3188 18.6855 35.3459 17.3362L36.6346 12.2393L33.488 11.4661L32.2333 16.4287C31.4061 16.2254 30.5564 16.0337 29.7122 15.8437L30.9759 10.8484L27.831 10.0752L26.5413 15.1703C25.8566 15.0166 25.1844 14.8646 24.532 14.7047L24.5356 14.6888L20.196 13.6204L19.359 16.9341C19.359 16.9341 21.6936 17.4616 21.6443 17.4943C22.9188 17.808 23.1491 18.6395 23.1106 19.2988L21.6425 25.1052C21.7304 25.1273 21.8442 25.1592 21.9697 25.2086C21.8648 25.183 21.7528 25.1547 21.6372 25.1273L19.5794 33.2614C19.4235 33.6431 19.0282 34.2157 18.1374 33.9983C18.1688 34.0434 15.8502 33.4354 15.8502 33.4354L14.2881 36.9869L18.383 37.9933C19.1447 38.1815 19.8913 38.3786 20.6262 38.5641L19.324 43.7194L22.4671 44.4926L23.7567 39.3921C24.6153 39.6219 25.4488 39.834 26.2644 40.0337L24.9792 45.1103L28.1259 45.8835L29.4281 40.738C34.7938 41.7391 38.8286 41.3353 40.527 36.5503C41.8955 32.6976 40.4588 30.4752 37.6357 29.026C39.6917 28.5586 41.2404 27.2251 41.6535 24.4708ZM34.464 34.411C33.4916 38.2637 26.9124 36.1809 24.7793 35.6587L26.5073 28.8289C28.6403 29.3538 35.4803 30.393 34.464 34.411ZM35.4373 24.4151C34.55 27.9197 29.0741 26.1391 27.2977 25.7026L28.8644 19.5082C30.6407 19.9447 36.3613 20.7594 35.4373 24.4151Z" fill="white"/>
</svg>
