<svg width="63" height="63" viewBox="0 0 63 63" fill="none" xmlns="http://www.w3.org/2000/svg">
<path fill-rule="evenodd" clip-rule="evenodd" d="M31.3287 0.518555C72.7381 0.518555 72.7381 62.4805 31.3287 62.4805C-9.92856 62.6327 -9.92856 0.518555 31.3287 0.518555Z" fill="#F01010"/>
<path fill-rule="evenodd" clip-rule="evenodd" d="M29.9591 21.8338H25.8486C25.6964 21.8338 25.6964 21.986 25.5441 22.1383C25.5441 22.2905 25.5442 22.4428 25.6964 22.595L26.1531 22.7472L27.8277 23.204C28.1322 23.5084 28.4367 23.8129 28.4367 24.1174C28.4367 24.5741 28.589 25.0309 28.4367 25.7921L28.2844 29.4458L27.98 33.7085C27.98 35.9922 27.8278 41.4728 27.2188 43.1475C27.0666 43.452 26.7621 43.7565 26.4576 44.0609C26.0009 44.2132 25.6964 44.2131 25.2396 44.2131L24.4784 44.3654C24.3262 44.5176 24.3262 44.6699 24.3262 44.8221C24.3262 44.9744 24.3262 45.1266 24.6307 45.2788L26.4576 45.1266H30.2636L32.0905 45.2788C32.2427 45.1266 32.2428 45.1266 32.2428 44.8221C32.2428 44.6699 32.2427 44.5176 32.0905 44.3654H30.8726C30.4158 44.3654 30.1113 44.2132 29.8068 43.9087C29.6546 43.7564 29.6547 43.6042 29.5024 43.4519C29.3502 42.6907 29.1979 41.7773 29.1979 41.0161V36.6011L29.3501 32.7951L29.6546 29.7503C29.6546 28.6846 29.6546 27.7712 29.8068 26.7055L31.0248 29.1413L32.0905 31.7294L35.4398 38.428L36.3533 40.5594L37.7234 43.1475L38.1801 44.5176L38.4846 45.4311C38.6368 45.5833 38.9413 45.5833 39.0936 45.4311L40.007 43.2997C40.9204 41.3206 41.8339 39.3414 42.8996 37.3623L45.9444 31.2727C46.2489 30.816 46.4011 30.207 46.7056 29.5981C47.1623 28.5324 47.6191 27.6189 48.228 26.7055V41.3206V42.9952C48.228 43.452 48.0758 43.7564 47.7713 43.7564C47.6191 43.9087 47.1623 44.2131 46.5533 44.2131L45.6399 44.3654C45.4877 44.5176 45.4877 44.6699 45.4877 44.8221C45.4877 44.9744 45.6399 45.1266 45.7921 45.2788L48.0757 45.1266H52.1862L54.3176 45.2788C54.4699 45.2788 54.6221 45.1266 54.6221 44.8221C54.6221 44.6699 54.6221 44.5176 54.4698 44.3654H53.4041C52.9474 44.2132 52.643 44.0609 52.1862 43.9087C51.8818 43.6042 51.7295 43.2997 51.7295 42.9952L51.5773 41.4728C51.5773 39.7982 51.425 37.9713 51.425 36.1444C51.425 34.3175 51.2728 32.4906 51.1205 30.816V26.2488L51.2728 24.4219C51.4251 23.9651 51.5773 23.6607 51.8817 23.3562C52.3385 23.0517 52.9475 22.8995 53.5564 22.8995H54.4698V22.4427L54.3176 21.986L52.6429 22.1383H48.6847C48.6847 22.8995 48.3802 23.8129 47.9235 24.8786L46.0966 28.8369L42.7473 35.5355C41.9861 37.3623 41.0727 39.037 40.007 40.8639L37.5712 35.9922L33.4607 27.9234C33.0039 26.8577 32.5472 25.792 32.2428 24.7264C31.9383 23.9652 31.786 23.0517 31.786 22.2905H29.9591V21.8338ZM10.4724 39.6459V42.3863C10.3201 43.6042 9.55888 44.0609 8.34096 44.0609L7.57975 44.2131C7.27527 44.5176 7.27527 44.9744 7.57975 45.1266L11.9948 44.9743L16.7142 45.1266L17.0187 44.6699L16.8664 44.2131L15.953 44.0609C15.0395 44.0609 14.5829 43.9087 14.2784 43.6042C13.9739 43.2997 13.6694 42.9952 13.6694 42.3863C13.5171 41.4728 13.5171 40.5594 13.6694 39.6459V36.2967C12.4515 36.2967 11.538 36.2966 10.6246 36.1444L10.4724 39.6459ZM7.42755 22.1383C7.42755 22.2905 7.42751 22.4428 7.57975 22.595L8.79766 22.7472C9.25438 22.7472 9.71109 23.0517 10.0156 23.204C10.32 23.3562 10.4724 23.6607 10.4724 24.2697L10.6246 26.5533V33.7085H13.5172V23.9652L13.6694 23.0517C13.6694 22.8995 13.9738 22.7472 14.1261 22.7472L15.6485 22.595C17.4754 22.595 18.8455 23.0517 19.9112 24.1174C20.8246 25.0308 21.4336 26.5532 21.4336 28.2279C21.4336 29.9025 21.1292 31.1205 20.368 32.1861C19.4546 33.0996 18.3888 33.8608 17.1709 34.013C15.6485 34.3175 13.6694 34.4697 11.0813 34.4697C8.79766 34.4697 6.20957 34.3175 3.46924 34.013C6.51405 34.622 8.79766 35.0787 10.3201 35.231C13.6694 35.6877 17.0187 35.3832 20.2157 34.4697C20.9769 34.013 22.0426 33.5563 22.956 32.7951C23.565 32.3384 24.0217 31.7294 24.4784 30.9682C24.7829 30.207 24.9352 29.2936 25.0874 28.2279C25.0874 27.1622 24.7829 25.9443 24.3262 25.0309C23.8695 24.1174 23.1083 23.3562 22.3471 22.8995C21.5859 22.4427 20.5202 21.986 19.3023 21.8338C18.0844 21.6816 16.8664 21.5293 15.344 21.5293L11.3858 21.6815L8.34096 21.8338C7.57975 21.8338 7.42755 21.986 7.42755 22.1383Z" fill="white"/>
</svg>
