<svg width="127" height="23" viewBox="0 0 127 23" fill="none" xmlns="http://www.w3.org/2000/svg">
<path d="M0.385742 22.0411V0.954102H7.22048C9.80799 0.954102 11.4957 1.06133 12.2836 1.27113C13.4911 1.58816 14.5028 2.27816 15.3187 3.33647C16.1346 4.39478 16.5402 5.76546 16.5402 7.44384C16.5402 8.73993 16.3071 9.82621 15.8362 10.7074C15.3653 11.5885 14.7685 12.2832 14.0459 12.7867C13.3233 13.2902 12.5866 13.6212 11.836 13.7844C10.8197 13.9849 9.34643 14.0874 7.42096 14.0874H4.6423V22.0411H0.385742ZM4.6423 4.52066V10.5022H6.97339C8.65177 10.5022 9.77535 10.3903 10.3395 10.1712C10.9036 9.95209 11.3465 9.60709 11.6682 9.13621C11.9899 8.66533 12.1484 8.11986 12.1484 7.49513C12.1484 6.72587 11.9246 6.09648 11.4724 5.59762C11.0202 5.09877 10.4514 4.78641 9.76137 4.66053C9.25319 4.56262 8.23217 4.516 6.69832 4.516H4.6423V4.52066Z" fill="white"/>
<path d="M36.872 22.0411H32.2378L30.3963 17.253H21.9671L20.2281 22.0411H15.7104L23.9252 0.954102H28.4289L36.872 22.0411ZM29.0349 13.6958L26.1304 5.87269L23.2818 13.6958H29.0349Z" fill="white"/>
<path d="M41.9864 22.0411V13.1643L34.2612 0.954102H39.2544L44.215 9.29939L49.0776 0.954102H53.9822L46.229 13.197V22.0458H41.9864V22.0411Z" fill="white"/>
<path d="M56.0659 22.0411V0.954102H71.7028V4.52066H60.3225V9.19682H70.9103V12.7494H60.3225V18.4885H72.1038V22.0411H56.0659Z" fill="#64B3DF"/>
<path d="M75.7173 22.0411V0.954102H91.3542V4.52066H79.9738V9.19682H90.5616V12.7494H79.9738V18.4885H91.7551V22.0411H75.7173Z" fill="#64B3DF"/>
<path d="M95.377 22.0411V0.954102H104.338C106.589 0.954102 108.231 1.14525 109.252 1.52289C110.273 1.90052 111.088 2.57654 111.704 3.54161C112.319 4.51134 112.622 5.61627 112.622 6.86573C112.622 8.44621 112.156 9.75628 111.228 10.7866C110.296 11.817 108.907 12.465 107.056 12.7354C107.974 13.2716 108.734 13.8637 109.335 14.507C109.937 15.1504 110.743 16.2926 111.76 17.9291L114.333 22.0411H109.242L106.165 17.4535C105.074 15.8124 104.324 14.7821 103.923 14.3532C103.522 13.9243 103.093 13.6352 102.641 13.4767C102.188 13.3182 101.475 13.2389 100.496 13.2389H99.6335V22.0411H95.377ZM99.6335 9.87283H102.785C104.827 9.87283 106.105 9.78425 106.613 9.61175C107.121 9.43925 107.517 9.14087 107.806 8.72128C108.095 8.30168 108.24 7.7702 108.24 7.1408C108.24 6.43215 108.049 5.85871 107.671 5.42046C107.293 4.98222 106.757 4.70715 106.067 4.59526C105.722 4.54864 104.687 4.52532 102.962 4.52532H99.6382V9.8775L99.6335 9.87283Z" fill="#64B3DF"/>
<path d="M126.386 16.1528C126.386 17.7799 125.812 19.1692 124.665 20.3161C123.518 21.4677 122.134 22.0411 120.511 22.0411C118.889 22.0411 117.504 21.463 116.362 20.3161C115.229 19.1692 114.66 17.7799 114.66 16.1528C114.66 14.5257 115.234 13.1597 116.376 12.0128C117.518 10.8752 118.893 10.3018 120.507 10.3018C122.12 10.3018 123.514 10.8705 124.661 12.0128C125.807 13.155 126.381 14.535 126.381 16.1528H126.386ZM120.511 11.1037C119.122 11.1037 117.933 11.5978 116.945 12.5909C115.966 13.5793 115.476 14.7681 115.476 16.1621C115.476 17.5561 115.966 18.7683 116.94 19.7566C117.924 20.745 119.113 21.2439 120.511 21.2439C121.91 21.2439 123.103 20.7497 124.082 19.7566C125.066 18.7636 125.551 17.5654 125.551 16.1621C125.551 14.7588 125.061 13.5746 124.082 12.5909C123.099 11.5978 121.905 11.1037 120.511 11.1037ZM120.399 12.9172C121.201 12.9172 121.784 12.9965 122.157 13.1503C122.824 13.4301 123.155 13.9709 123.155 14.7821C123.155 15.3556 122.945 15.7845 122.525 16.0549C122.301 16.1994 121.994 16.302 121.593 16.3626C122.096 16.4418 122.465 16.6516 122.698 16.9966C122.931 17.337 123.047 17.668 123.047 17.9943V18.4652C123.047 18.6144 123.047 18.7776 123.061 18.9454C123.071 19.1133 123.094 19.2252 123.117 19.2811L123.159 19.3604H122.096C122.096 19.3604 122.087 19.3184 122.078 19.2951C122.073 19.2718 122.068 19.2485 122.064 19.2205L122.04 19.0154V18.5072C122.04 17.7659 121.835 17.2717 121.434 17.0339C121.197 16.8987 120.772 16.8241 120.171 16.8241H119.276V19.3604H118.143V12.9172H120.395H120.399ZM122.054 14.8753C122.054 14.4091 121.91 14.0921 121.625 13.9336C121.341 13.7751 120.879 13.6958 120.25 13.6958H119.28V16.0269H120.306C120.786 16.0269 121.15 15.9803 121.388 15.8824C121.831 15.7052 122.054 15.3695 122.054 14.8753Z" fill="white"/>
</svg>
