<svg width="164" height="29" viewBox="0 0 164 29" fill="none" xmlns="http://www.w3.org/2000/svg">
<path d="M21.9386 17.149C19.6096 17.149 17.3559 17.118 15.1045 17.1668C14.3237 17.1845 13.9267 17.0514 14.042 16.162C14.1685 15.1838 13.6272 13.8662 14.2727 13.2961C14.8228 12.8104 16.1027 13.1275 17.0587 13.1253C19.9046 13.1142 22.7504 13.1608 25.5963 13.0987C26.457 13.081 26.6189 13.3494 26.61 14.1501C26.5679 18.216 26.5723 22.2796 26.61 26.3455C26.6167 27.124 26.4969 27.5055 25.6074 27.4013C24.8776 27.317 24.1257 27.3325 23.3937 27.3991C22.6706 27.4634 22.5087 27.1684 22.5553 26.5162C22.6063 25.782 22.5663 25.039 22.5663 24.3181C22.3268 24.165 22.2092 24.338 22.0761 24.4489C17.7153 28.12 12.9108 28.8697 7.77134 26.3787C2.94466 24.0408 0.214133 18.8881 0.608962 13.305C1.12357 6.02728 7.20793 0.519633 14.3259 1.00319C18.8044 1.30707 22.1715 3.5474 24.5582 7.31602C24.8732 7.81288 24.9331 8.17887 24.281 8.39847C24.2122 8.42065 24.1501 8.46501 24.0858 8.5005C23.2673 8.92195 22.4621 9.64728 21.6259 9.68721C20.6698 9.73379 20.5123 8.42731 19.878 7.80623C17.4735 5.44834 14.6698 4.43243 11.3891 5.29973C7.95988 6.20695 5.8105 8.56039 4.90772 11.9386C3.30179 17.9454 7.75138 23.8634 13.7115 23.7658C17.4313 23.7059 20.9205 20.9487 21.9364 17.1468L21.9386 17.149Z" fill="#00AD59"/>
<path d="M93.4383 10.9434C96.6169 7.84022 100.303 7.8868 103.506 9.60142C105.929 10.8968 106.993 13.0551 107.042 15.7013C107.111 19.3568 107.044 23.0167 107.075 26.6745C107.08 27.3266 106.851 27.5107 106.244 27.4819C105.212 27.4353 103.93 27.8079 103.211 27.3266C102.389 26.7743 103.047 25.4256 103.01 24.4275C102.914 21.992 103.034 19.5476 102.912 17.1165C102.752 13.9468 100.998 12.2344 98.1829 12.292C95.5766 12.3475 93.4361 14.5346 93.3584 17.3938C93.2786 20.4215 93.3119 23.4537 93.354 26.4815C93.3629 27.2179 93.2542 27.626 92.418 27.473C92.2383 27.4397 92.0497 27.4663 91.8656 27.4685C90.0675 27.504 89.1684 26.636 89.1684 24.8645C89.1684 19.8759 89.1928 14.8873 89.1462 9.89865C89.1373 8.99809 89.4146 8.69864 90.2664 8.8162C90.5569 8.85613 90.8564 8.82064 91.1514 8.82064C92.5311 8.82064 93.2949 9.52749 93.4427 10.9412L93.4383 10.9434Z" fill="#00AD59"/>
<path d="M163.567 27.4701C162.01 27.4701 160.719 27.4457 159.432 27.4812C158.88 27.4968 158.654 27.1374 158.392 26.787C157.026 24.9614 155.664 23.1315 154.244 21.2261C152.818 23.1292 151.452 24.9171 150.132 26.7359C149.748 27.2638 149.34 27.5145 148.668 27.4834C147.497 27.4302 146.319 27.4679 144.921 27.4679C146.177 25.7821 147.308 24.2605 148.444 22.7411C149.438 21.4102 150.409 20.0593 151.443 18.7617C151.838 18.2649 151.815 17.9477 151.438 17.453C149.313 14.6692 147.226 11.8566 144.964 8.83775C146.565 8.83775 147.969 8.82222 149.375 8.84662C149.801 8.85328 149.943 9.28803 150.158 9.56974C151.496 11.3332 152.82 13.1077 154.244 15.0064C155.56 13.2519 156.871 11.5882 158.077 9.85144C158.623 9.06844 159.206 8.71132 160.173 8.79782C161.196 8.88877 162.232 8.81779 163.35 8.81779C163.299 9.30356 162.981 9.57417 162.76 9.8714C160.885 12.3868 159.018 14.9088 157.097 17.3887C156.649 17.9654 156.682 18.3181 157.11 18.8793C159.239 21.6542 161.322 24.4668 163.572 27.4679L163.567 27.4701Z" fill="#00AD59"/>
<path d="M116.74 17.0933C116.74 18.6061 116.642 20.1277 116.767 21.6294C116.9 23.2508 118.022 24.0871 119.657 23.9784C120.207 23.9407 120.755 23.8431 121.298 23.7344C122.658 23.4638 122.656 23.4549 122.658 24.8812C122.658 26.5063 121.854 27.438 120.245 27.676C118.521 27.9333 116.851 27.8313 115.325 26.9041C113.599 25.8572 112.823 24.2468 112.754 22.2793C112.645 19.216 112.61 16.1506 112.745 13.0895C112.772 12.4596 112.643 12.1757 111.986 12.2688C111.878 12.2844 111.765 12.271 111.654 12.2688C108.972 12.26 108.994 12.26 109.112 9.54938C109.138 8.93939 109.365 8.79078 109.906 8.81518C110.569 8.84401 111.239 8.77969 111.9 8.83292C112.608 8.89059 112.785 8.58893 112.758 7.93679C112.716 6.90314 112.772 5.86727 112.738 4.83361C112.718 4.24581 112.945 4.05726 113.515 4.0861C114.327 4.12603 115.143 4.13046 115.953 4.0861C116.569 4.05061 116.698 4.32122 116.682 4.86689C116.651 5.93825 116.702 7.00961 116.662 8.08097C116.64 8.66656 116.838 8.84845 117.421 8.83292C118.86 8.79743 120.302 8.83736 121.744 8.81074C122.299 8.79965 122.512 8.96157 122.543 9.55382C122.689 12.2688 122.709 12.2666 119.981 12.2666C119.169 12.2666 118.353 12.3043 117.543 12.2555C116.886 12.2156 116.625 12.3842 116.658 13.1028C116.718 14.4293 116.676 15.7624 116.676 17.0911C116.7 17.0911 116.724 17.0911 116.747 17.0911L116.74 17.0933Z" fill="#00AD59"/>
<path d="M57.7572 11.0296C59.1967 9.10425 61.2529 8.59186 63.4977 8.52975C64.3428 8.50535 64.9861 8.64953 64.7399 9.73642C64.7088 9.87617 64.7354 10.0314 64.7354 10.1778C64.731 11.0274 65.026 12.0677 64.64 12.6732C64.243 13.2943 63.1938 12.6378 62.413 12.6954C59.7779 12.8884 57.8858 14.5365 57.5886 17.165C57.2514 20.1439 57.4555 23.1406 57.5642 26.1263C57.6063 27.2797 57.2891 27.608 56.1246 27.5681C53.3963 27.4749 53.3941 27.537 53.3941 24.7932C53.3941 19.8068 53.4052 14.8204 53.3785 9.83402C53.3741 9.122 53.4828 8.67837 54.319 8.81811C54.4255 8.83586 54.5408 8.81589 54.6518 8.81368C55.4636 8.79815 56.3509 8.56524 57.0673 8.81811C57.979 9.13974 57.196 10.2776 57.7594 11.0296H57.7572Z" fill="#00AD59"/>
<path d="M85.4863 11.2396C85.4863 9.62772 84.6811 8.8218 83.0707 8.8218C82.0075 8.8218 81.4256 9.34454 81.3251 10.39C76.7912 7.00292 70.9264 8.06541 67.8587 11.4769C64.7533 14.9328 64.5626 20.7066 67.5349 24.4553C70.7401 28.4945 75.7575 29.0224 81.3206 25.9059C81.3812 26.9499 81.9483 27.4719 83.0219 27.4719C83.5033 27.4719 83.989 27.4231 84.4615 27.483C85.3155 27.5917 85.5063 27.239 85.5018 26.425C85.4663 21.3632 85.4841 16.3014 85.4841 11.2396H85.4863ZM75.4159 24.493C71.9911 24.4575 69.3626 21.6471 69.3892 18.047C69.4159 14.4958 72.1242 11.7963 75.6289 11.8274C79.2089 11.8607 81.64 14.4492 81.6223 18.209C81.6045 21.9865 79.0914 24.5307 75.4137 24.493H75.4159Z" fill="#00AD59"/>
<path d="M49.4344 11.4075C49.4344 9.68328 48.5849 8.82116 46.8858 8.82116C45.9172 8.82116 45.4144 9.33651 45.3774 10.3672C39.6347 7.3949 34.9255 7.81856 31.7669 11.545C28.7458 15.1096 28.5284 20.4753 31.2567 24.1574C32.9093 26.3888 35.1607 27.6066 37.8779 27.9415C40.604 28.2765 43.0972 27.6243 45.2865 25.7589C45.3323 26.899 45.8883 27.4691 46.9545 27.4691C47.3982 27.4691 47.8484 27.4225 48.2832 27.4802C49.1793 27.6022 49.4677 27.316 49.4566 26.36C49.4034 21.3758 49.4322 16.3917 49.4322 11.4053L49.4344 11.4075ZM39.4794 24.4945C36.0546 24.5123 33.3263 21.7285 33.2797 18.164C33.2331 14.717 35.9769 11.8489 39.3374 11.8267C43.0151 11.8046 45.5793 14.3532 45.6281 18.0841C45.6769 21.7906 43.1016 24.4768 39.4794 24.4968V24.4945Z" fill="#00AD59"/>
<path d="M130.011 19.5581C132.191 19.5559 134.372 19.5581 136.55 19.5581H141.871C143.637 19.5581 144.407 18.6613 144.18 16.8675C143.668 12.8039 140.583 9.38352 136.665 8.53176C132.566 7.64228 128.338 9.44119 126.16 12.9991C124.075 16.4062 124.328 20.6938 126.806 24.0011C129.161 27.1464 133.214 28.4862 137.193 27.4436C139.562 26.8248 141.539 25.6248 142.925 23.5685C143.049 23.3822 143.513 23.0695 143.036 22.8743C142.086 22.4839 141.104 22.1489 140.106 21.9049C139.618 21.7852 139.278 22.3153 138.879 22.5593C138.12 23.0207 137.346 23.451 136.51 23.7416C133.595 24.7597 130.397 23.4177 129.272 20.7315C128.82 19.6491 128.873 19.5581 130.013 19.5559L130.011 19.5581ZM129.277 15.3969C129.898 13.2985 132.298 11.6128 134.724 11.6105C137.235 11.6061 139.691 13.2897 140.292 15.3814C140.454 15.9492 140.285 16.089 139.74 16.0823C138.083 16.0601 136.426 16.0734 134.771 16.0734C133.114 16.0734 131.457 16.0535 129.802 16.0845C129.223 16.0956 129.119 15.9403 129.279 15.3947L129.277 15.3969Z" fill="#00AD59"/>
</svg>
