<svg width="85" height="53" viewBox="0 0 85 53" fill="none" xmlns="http://www.w3.org/2000/svg">
<path d="M26.2793 0.46875C19.4026 0.491069 12.8158 3.24926 7.96508 8.13773C3.11434 13.0262 0.396133 19.6454 0.407261 26.542C0.418388 33.4386 3.15794 40.049 8.02443 44.9217C12.8909 49.7944 19.4866 52.5312 26.3633 52.5312C33.24 52.5312 39.8356 49.7944 44.7021 44.9217C49.5686 40.049 52.3081 33.4386 52.3193 26.542C52.3304 19.6454 49.6122 13.0262 44.7614 8.13773C39.9107 3.24926 33.3239 0.491069 26.4473 0.46875L26.2793 0.46875Z" fill="#EB001B"/>
<path d="M58.3672 0.46875C51.4905 0.491069 44.9037 3.24926 40.053 8.13773C35.2022 13.0262 32.484 19.6454 32.4952 26.542C32.5063 33.4386 35.2458 40.049 40.1123 44.9217C44.9788 49.7944 51.5745 52.5312 58.4512 52.5312C65.3278 52.5312 71.9235 49.7944 76.79 44.9217C81.6565 40.049 84.396 33.4386 84.4072 26.542C84.4183 19.6454 81.7001 13.0262 76.8493 8.13773C71.9986 3.24926 65.4118 0.491069 58.5352 0.46875L58.3672 0.46875Z" fill="#F79E1B"/>
<path d="M42.4072 6.0293C39.3152 8.46498 36.8155 11.5733 35.0965 15.1196C33.3776 18.6658 32.4844 22.5574 32.4844 26.5005C32.4844 30.4436 33.3776 34.3352 35.0965 37.8814C36.8155 41.4277 39.3152 44.536 42.4072 46.9717C45.4991 44.536 47.9989 41.4277 49.7178 37.8814C51.4368 34.3352 52.33 30.4436 52.33 26.5005C52.33 22.5574 51.4368 18.6658 49.7178 15.1196C47.9989 11.5733 45.4991 8.46498 42.4072 6.0293Z" fill="#FF5F00"/>
</svg>
