<svg width="48" height="48" viewBox="0 0 48 48" fill="none" xmlns="http://www.w3.org/2000/svg">
<path d="M19.6304 24.0004C19.6304 21.5878 21.5869 19.6314 24.001 19.6314C26.4151 19.6314 28.3726 21.5878 28.3726 24.0004C28.3726 26.4131 26.4151 28.3694 24.001 28.3694C21.5869 28.3694 19.6304 26.4131 19.6304 24.0004ZM17.2672 24.0004C17.2672 27.7173 20.2819 30.7302 24.001 30.7302C27.72 30.7302 30.7347 27.7173 30.7347 24.0004C30.7347 20.2836 27.72 17.2707 24.001 17.2707C20.2819 17.2707 17.2672 20.2836 17.2672 24.0004ZM29.4277 17.0039C29.4275 17.3149 29.5197 17.619 29.6925 17.8777C29.8653 18.1364 30.111 18.3381 30.3985 18.4573C30.686 18.5764 31.0024 18.6077 31.3077 18.5471C31.613 18.4866 31.8934 18.3369 32.1136 18.117C32.3338 17.8972 32.4838 17.617 32.5446 17.3119C32.6054 17.0069 32.5744 16.6907 32.4554 16.4032C32.3364 16.1158 32.1348 15.8701 31.8761 15.6972C31.6174 15.5243 31.3132 15.4319 31.0019 15.4318H31.0013C30.5841 15.432 30.1841 15.5977 29.889 15.8924C29.5939 16.1872 29.428 16.5869 29.4277 17.0039ZM18.703 34.6683C17.4245 34.6101 16.7295 34.3973 16.2677 34.2175C15.6555 33.9793 15.2186 33.6956 14.7593 33.2372C14.3 32.7788 14.0157 32.3426 13.7784 31.7307C13.5984 31.2694 13.3854 30.5747 13.3273 29.2969C13.2637 27.9154 13.251 27.5004 13.251 24.0005C13.251 20.5006 13.2648 20.0868 13.3273 18.7042C13.3855 17.4264 13.6001 16.7331 13.7784 16.2704C14.0168 15.6585 14.3007 15.2219 14.7593 14.7629C15.218 14.3038 15.6544 14.0197 16.2677 13.7825C16.7293 13.6026 17.4245 13.3898 18.703 13.3317C20.0853 13.2682 20.5005 13.2555 24.001 13.2555C27.5014 13.2555 27.9171 13.2692 29.3005 13.3317C30.579 13.3899 31.2728 13.6043 31.7358 13.7825C32.348 14.0197 32.7849 14.3045 33.2442 14.7629C33.7035 15.2213 33.9867 15.6585 34.2251 16.2704C34.4051 16.7317 34.6181 17.4264 34.6762 18.7042C34.7398 20.0868 34.7525 20.5006 34.7525 24.0005C34.7525 27.5004 34.7398 27.9143 34.6762 29.2969C34.618 30.5747 34.404 31.2692 34.2251 31.7307C33.9867 32.3426 33.7029 32.7792 33.2442 33.2372C32.7855 33.6951 32.348 33.9793 31.7358 34.2175C31.2742 34.3974 30.579 34.6102 29.3005 34.6683C27.9182 34.7319 27.503 34.7445 24.001 34.7445C20.499 34.7445 20.0849 34.7319 18.703 34.6683ZM18.5944 10.9739C17.1984 11.0374 16.2444 11.2587 15.4114 11.5826C14.5486 11.9172 13.8182 12.3661 13.0883 13.0943C12.3585 13.8226 11.9105 14.5537 11.5757 15.416C11.2516 16.2491 11.0302 17.2019 10.9666 18.5971C10.902 19.9945 10.8872 20.4413 10.8872 24.0004C10.8872 27.5596 10.902 28.0063 10.9666 29.4037C11.0302 30.799 11.2516 31.7518 11.5757 32.5849C11.9105 33.4466 12.3586 34.1786 13.0883 34.9065C13.8181 35.6345 14.5486 36.0827 15.4114 36.4182C16.246 36.7422 17.1984 36.9634 18.5944 37.027C19.9934 37.0905 20.4397 37.1063 24.001 37.1063C27.5623 37.1063 28.0093 37.0916 29.4075 37.027C30.8037 36.9634 31.757 36.7422 32.5906 36.4182C33.4528 36.0827 34.1838 35.6348 34.9136 34.9065C35.6435 34.1783 36.0905 33.4466 36.4262 32.5849C36.7504 31.7518 36.9728 30.7989 37.0353 29.4037C37.0989 28.0053 37.1137 27.5596 37.1137 24.0004C37.1137 20.4413 37.0989 19.9945 37.0353 18.5971C36.9717 17.2018 36.7504 16.2486 36.4262 15.416C36.0905 14.5542 35.6423 13.8238 34.9136 13.0943C34.1849 12.3649 33.4529 11.9172 32.5916 11.5826C31.757 11.2587 30.8036 11.0364 29.4086 10.9739C28.0103 10.9104 27.5633 10.8945 24.002 10.8945C20.4407 10.8945 19.9934 10.9093 18.5944 10.9739Z" fill="url(#paint0_radial_514_312)"/>
<path d="M19.6304 24.0004C19.6304 21.5878 21.5869 19.6314 24.001 19.6314C26.4151 19.6314 28.3726 21.5878 28.3726 24.0004C28.3726 26.4131 26.4151 28.3694 24.001 28.3694C21.5869 28.3694 19.6304 26.4131 19.6304 24.0004ZM17.2672 24.0004C17.2672 27.7173 20.2819 30.7302 24.001 30.7302C27.72 30.7302 30.7347 27.7173 30.7347 24.0004C30.7347 20.2836 27.72 17.2707 24.001 17.2707C20.2819 17.2707 17.2672 20.2836 17.2672 24.0004ZM29.4277 17.0039C29.4275 17.3149 29.5197 17.619 29.6925 17.8777C29.8653 18.1364 30.111 18.3381 30.3985 18.4573C30.686 18.5764 31.0024 18.6077 31.3077 18.5471C31.613 18.4866 31.8934 18.3369 32.1136 18.117C32.3338 17.8972 32.4838 17.617 32.5446 17.3119C32.6054 17.0069 32.5744 16.6907 32.4554 16.4032C32.3364 16.1158 32.1348 15.8701 31.8761 15.6972C31.6174 15.5243 31.3132 15.4319 31.0019 15.4318H31.0013C30.5841 15.432 30.1841 15.5977 29.889 15.8924C29.5939 16.1872 29.428 16.5869 29.4277 17.0039ZM18.703 34.6683C17.4245 34.6101 16.7295 34.3973 16.2677 34.2175C15.6555 33.9793 15.2186 33.6956 14.7593 33.2372C14.3 32.7788 14.0157 32.3426 13.7784 31.7307C13.5984 31.2694 13.3854 30.5747 13.3273 29.2969C13.2637 27.9154 13.251 27.5004 13.251 24.0005C13.251 20.5006 13.2648 20.0868 13.3273 18.7042C13.3855 17.4264 13.6001 16.7331 13.7784 16.2704C14.0168 15.6585 14.3007 15.2219 14.7593 14.7629C15.218 14.3038 15.6544 14.0197 16.2677 13.7825C16.7293 13.6026 17.4245 13.3898 18.703 13.3317C20.0853 13.2682 20.5005 13.2555 24.001 13.2555C27.5014 13.2555 27.9171 13.2692 29.3005 13.3317C30.579 13.3899 31.2728 13.6043 31.7358 13.7825C32.348 14.0197 32.7849 14.3045 33.2442 14.7629C33.7035 15.2213 33.9867 15.6585 34.2251 16.2704C34.4051 16.7317 34.6181 17.4264 34.6762 18.7042C34.7398 20.0868 34.7525 20.5006 34.7525 24.0005C34.7525 27.5004 34.7398 27.9143 34.6762 29.2969C34.618 30.5747 34.404 31.2692 34.2251 31.7307C33.9867 32.3426 33.7029 32.7792 33.2442 33.2372C32.7855 33.6951 32.348 33.9793 31.7358 34.2175C31.2742 34.3974 30.579 34.6102 29.3005 34.6683C27.9182 34.7319 27.503 34.7445 24.001 34.7445C20.499 34.7445 20.0849 34.7319 18.703 34.6683ZM18.5944 10.9739C17.1984 11.0374 16.2444 11.2587 15.4114 11.5826C14.5486 11.9172 13.8182 12.3661 13.0883 13.0943C12.3585 13.8226 11.9105 14.5537 11.5757 15.416C11.2516 16.2491 11.0302 17.2019 10.9666 18.5971C10.902 19.9945 10.8872 20.4413 10.8872 24.0004C10.8872 27.5596 10.902 28.0063 10.9666 29.4037C11.0302 30.799 11.2516 31.7518 11.5757 32.5849C11.9105 33.4466 12.3586 34.1786 13.0883 34.9065C13.8181 35.6345 14.5486 36.0827 15.4114 36.4182C16.246 36.7422 17.1984 36.9634 18.5944 37.027C19.9934 37.0905 20.4397 37.1063 24.001 37.1063C27.5623 37.1063 28.0093 37.0916 29.4075 37.027C30.8037 36.9634 31.757 36.7422 32.5906 36.4182C33.4528 36.0827 34.1838 35.6348 34.9136 34.9065C35.6435 34.1783 36.0905 33.4466 36.4262 32.5849C36.7504 31.7518 36.9728 30.7989 37.0353 29.4037C37.0989 28.0053 37.1137 27.5596 37.1137 24.0004C37.1137 20.4413 37.0989 19.9945 37.0353 18.5971C36.9717 17.2018 36.7504 16.2486 36.4262 15.416C36.0905 14.5542 35.6423 13.8238 34.9136 13.0943C34.1849 12.3649 33.4529 11.9172 32.5916 11.5826C31.757 11.2587 30.8036 11.0364 29.4086 10.9739C28.0103 10.9104 27.5633 10.8945 24.002 10.8945C20.4407 10.8945 19.9934 10.9093 18.5944 10.9739Z" fill="url(#paint1_radial_514_312)"/>
<defs>
<radialGradient id="paint0_radial_514_312" cx="0" cy="0" r="1" gradientUnits="userSpaceOnUse" gradientTransform="translate(14.3717 37.2302) scale(34.2378 34.2173)">
<stop offset="0.09" stop-color="#FA8F21"/>
<stop offset="0.78" stop-color="#D82D7E"/>
</radialGradient>
<radialGradient id="paint1_radial_514_312" cx="0" cy="0" r="1" gradientUnits="userSpaceOnUse" gradientTransform="translate(26.793 38.4044) scale(26.9841 26.968)">
<stop offset="0.64" stop-color="#8C3AAA" stop-opacity="0"/>
<stop offset="1" stop-color="#8C3AAA"/>
</radialGradient>
</defs>
</svg>
