<svg width="48" height="48" viewBox="0 0 48 48" fill="none" xmlns="http://www.w3.org/2000/svg">
<path d="M24.1226 38.8096C31.3651 38.8096 37.2363 32.9383 37.2363 25.6958C37.2363 18.4533 31.3651 12.582 24.1226 12.582C16.88 12.582 11.0088 18.4533 11.0088 25.6958C11.0088 32.9383 16.88 38.8096 24.1226 38.8096Z" fill="#34AADF"/>
<path d="M16.6304 25.4084C16.6304 25.4084 23.1263 22.6448 25.3792 21.6717C26.2429 21.2825 29.1716 20.0369 29.1716 20.0369C29.1716 20.0369 30.5234 19.492 30.4107 20.8154C30.3732 21.3604 30.0728 23.2676 29.7724 25.3306C29.3218 28.2499 28.8337 31.4416 28.8337 31.4416C28.8337 31.4416 28.7586 32.3369 28.1203 32.4926C27.482 32.6483 26.4306 31.9477 26.2429 31.7919C26.0926 31.6752 23.4267 29.9236 22.4504 29.0673C22.1876 28.8337 21.8872 28.3667 22.488 27.8217C23.8397 26.5372 25.4543 24.9414 26.4306 23.9293C26.8812 23.4622 27.3317 22.3724 25.4543 23.6958C22.7884 25.603 20.16 27.3935 20.16 27.3935C20.16 27.3935 19.5592 27.7828 18.4328 27.4324C17.3063 27.0822 15.9921 26.6151 15.9921 26.6151C15.9921 26.6151 15.091 26.0312 16.6304 25.4084Z" fill="white"/>
</svg>
