<svg width="48" height="48" viewBox="0 0 48 48" fill="none" xmlns="http://www.w3.org/2000/svg">
<path fill-rule="evenodd" clip-rule="evenodd" d="M29.1209 20.671C30.7285 21.8138 32.6538 22.4244 34.6262 22.417V18.5079C34.2384 18.509 33.8517 18.4675 33.473 18.3842V21.4984C31.4961 21.5019 29.5681 20.8843 27.9612 19.7328V27.7725C27.9563 29.0917 27.5946 30.3851 26.9142 31.5154C26.2339 32.6456 25.2603 33.5708 24.0968 34.1926C22.9333 34.8144 21.6232 35.1098 20.3054 35.0474C18.9877 34.985 17.7113 34.5671 16.6118 33.8381C17.6289 34.8671 18.9284 35.5712 20.3458 35.8612C21.7633 36.1512 23.2349 36.014 24.5744 35.4671C25.9138 34.9201 27.0609 33.988 27.8702 32.7887C28.6796 31.5895 29.1148 30.177 29.1209 28.7302V20.671ZM30.5477 16.6837C29.7302 15.7976 29.2286 14.666 29.1209 13.4652V12.957H28.0264C28.1617 13.7203 28.4561 14.4466 28.8905 15.0887C29.3249 15.7307 29.8895 16.2742 30.5477 16.6837ZM19.1462 30.7434C18.7668 30.2473 18.5344 29.6547 18.4752 29.033C18.4161 28.4113 18.5326 27.7854 18.8117 27.2267C19.0907 26.668 19.5209 26.1988 20.0535 25.8726C20.586 25.5464 21.1994 25.3762 21.8239 25.3814C22.1687 25.3813 22.5115 25.4341 22.8403 25.5378V21.4984C22.4559 21.4475 22.0683 21.4257 21.6806 21.4332V24.5735C20.88 24.3205 20.0134 24.378 19.2533 24.7348C18.4931 25.0915 17.8951 25.7213 17.5782 26.4988C17.2612 27.2764 17.2486 28.1448 17.5428 28.9313C17.8369 29.7177 18.4163 30.3647 19.1658 30.7434H19.1462Z" fill="#EE1D52"/>
<path fill-rule="evenodd" clip-rule="evenodd" d="M27.9606 19.7067C29.5675 20.8582 31.4955 21.4758 33.4724 21.4723V18.3581C32.3461 18.1199 31.3229 17.5343 30.5471 16.6837C29.8889 16.2742 29.3243 15.7307 28.8899 15.0887C28.4555 14.4466 28.1611 13.7203 28.0257 12.957H25.1461V28.7302C25.1434 29.4284 24.9221 30.1082 24.5134 30.6742C24.1046 31.2402 23.5288 31.664 22.8669 31.8861C22.205 32.1081 21.4901 32.1174 20.8227 31.9124C20.1553 31.7075 19.5688 31.2987 19.1456 30.7434C18.4749 30.405 17.9377 29.8505 17.6208 29.1693C17.3039 28.4882 17.2258 27.7201 17.3989 26.9891C17.5721 26.2581 17.9865 25.6067 18.5752 25.1401C19.164 24.6734 19.8928 24.4188 20.6441 24.4172C20.9888 24.4183 21.3314 24.471 21.6604 24.5735V21.4332C20.2386 21.4674 18.8576 21.9159 17.6871 22.7238C16.5165 23.5317 15.6073 24.6639 15.0711 25.9812C14.5349 27.2985 14.395 28.7438 14.6686 30.1395C14.9422 31.5352 15.6174 32.8207 16.6112 33.8381C17.711 34.5723 18.9893 34.9945 20.31 35.0597C21.6308 35.1248 22.9444 34.8305 24.1111 34.208C25.2778 33.5856 26.2538 32.6583 26.9351 31.525C27.6165 30.3917 27.9776 29.0948 27.9801 27.7725L27.9606 19.7067Z" fill="#E3E3E3"/>
<path fill-rule="evenodd" clip-rule="evenodd" d="M33.4726 18.3575V17.517C32.4382 17.5214 31.4239 17.2323 30.5473 16.6831C31.3211 17.5361 32.3451 18.1223 33.4726 18.3575ZM28.0259 12.9564C28.0259 12.8066 27.9803 12.6502 27.9608 12.5004V11.9922H23.9865V27.7719C23.9831 28.6555 23.6292 29.5016 23.0026 30.1245C22.376 30.7475 21.5278 31.0963 20.6443 31.0946C20.124 31.0972 19.6105 30.9767 19.1458 30.7428C19.569 31.2981 20.1555 31.7069 20.8229 31.9118C21.4903 32.1168 22.2052 32.1075 22.8671 31.8855C23.529 31.6634 24.1048 31.2396 24.5135 30.6736C24.9223 30.1076 25.1436 29.4278 25.1462 28.7296V12.9564H28.0259ZM21.6606 21.4261V20.5336C20.0253 20.3114 18.3629 20.6497 16.9443 21.4933C15.5258 22.3369 14.4349 23.636 13.8493 25.179C13.2636 26.722 13.2179 28.4179 13.7195 29.9902C14.2211 31.5626 15.2404 32.9187 16.6114 33.8375C15.6251 32.8177 14.9571 31.5328 14.6891 30.1396C14.4211 28.7464 14.5647 27.3053 15.1023 25.9924C15.6399 24.6795 16.5483 23.5516 17.7164 22.7464C18.8845 21.9413 20.2619 21.4938 21.6802 21.4587L21.6606 21.4261Z" fill="#69C9D0"/>
</svg>
