<svg width="48" height="48" viewBox="0 0 48 48" fill="none" xmlns="http://www.w3.org/2000/svg">
<path d="M27.5 20C28.6046 20 29.5 19.1046 29.5 18C29.5 16.8954 28.6046 16 27.5 16C26.3954 16 25.5 16.8954 25.5 18C25.5 19.1046 26.3954 20 27.5 20Z" stroke="white" stroke-miterlimit="10"/>
<path d="M20.5 20C21.6046 20 22.5 19.1046 22.5 18C22.5 16.8954 21.6046 16 20.5 16C19.3954 16 18.5 16.8954 18.5 18C18.5 19.1046 19.3954 20 20.5 20Z" stroke="white" stroke-miterlimit="10"/>
<path d="M31 26C32.1046 26 33 25.1046 33 24C33 22.8954 32.1046 22 31 22C29.8954 22 29 22.8954 29 24C29 25.1046 29.8954 26 31 26Z" stroke="white" stroke-miterlimit="10"/>
<path d="M34.3 19.5C35.1284 19.5 35.8 18.8284 35.8 18C35.8 17.1716 35.1284 16.5 34.3 16.5C33.4716 16.5 32.8 17.1716 32.8 18C32.8 18.8284 33.4716 19.5 34.3 19.5Z" stroke="white" stroke-miterlimit="10"/>
<path d="M34.3 31.5C35.1284 31.5 35.8 30.8284 35.8 30C35.8 29.1716 35.1284 28.5 34.3 28.5C33.4716 28.5 32.8 29.1716 32.8 30C32.8 30.8284 33.4716 31.5 34.3 31.5Z" stroke="white" stroke-miterlimit="10"/>
<path d="M39.5 25.5C40.3284 25.5 41 24.8284 41 24C41 23.1716 40.3284 22.5 39.5 22.5C38.6716 22.5 38 23.1716 38 24C38 24.8284 38.6716 25.5 39.5 25.5Z" stroke="white" stroke-miterlimit="10"/>
<path d="M13.6 19.5C14.4284 19.5 15.1 18.8284 15.1 18C15.1 17.1716 14.4284 16.5 13.6 16.5C12.7715 16.5 12.1 17.1716 12.1 18C12.1 18.8284 12.7715 19.5 13.6 19.5Z" stroke="white" stroke-miterlimit="10"/>
<path d="M13.6 31.5C14.4284 31.5 15.1 30.8284 15.1 30C15.1 29.1716 14.4284 28.5 13.6 28.5C12.7715 28.5 12.1 29.1716 12.1 30C12.1 30.8284 12.7715 31.5 13.6 31.5Z" stroke="white" stroke-miterlimit="10"/>
<path d="M8.40002 25.5C9.22845 25.5 9.90002 24.8284 9.90002 24C9.90002 23.1716 9.22845 22.5 8.40002 22.5C7.5716 22.5 6.90002 23.1716 6.90002 24C6.90002 24.8284 7.5716 25.5 8.40002 25.5Z" stroke="white" stroke-miterlimit="10"/>
<path d="M31.8 11.8999C32.6284 11.8999 33.3 11.2283 33.3 10.3999C33.3 9.57148 32.6284 8.8999 31.8 8.8999C30.9716 8.8999 30.3 9.57148 30.3 10.3999C30.3 11.2283 30.9716 11.8999 31.8 11.8999Z" stroke="white" stroke-miterlimit="10"/>
<path d="M16.2 11.8999C17.0284 11.8999 17.7 11.2283 17.7 10.3999C17.7 9.57148 17.0284 8.8999 16.2 8.8999C15.3716 8.8999 14.7 9.57148 14.7 10.3999C14.7 11.2283 15.3716 11.8999 16.2 11.8999Z" stroke="white" stroke-miterlimit="10"/>
<path d="M24.1 13.5C24.9284 13.5 25.6 12.8284 25.6 12C25.6 11.1716 24.9284 10.5 24.1 10.5C23.2715 10.5 22.6 11.1716 22.6 12C22.6 12.8284 23.2715 13.5 24.1 13.5Z" stroke="white" stroke-miterlimit="10"/>
<path d="M31.8 39.5C32.6284 39.5 33.3 38.8284 33.3 38C33.3 37.1716 32.6284 36.5 31.8 36.5C30.9716 36.5 30.3 37.1716 30.3 38C30.3 38.8284 30.9716 39.5 31.8 39.5Z" stroke="white" stroke-miterlimit="10"/>
<path d="M16.2 39.5C17.0284 39.5 17.7 38.8284 17.7 38C17.7 37.1716 17.0284 36.5 16.2 36.5C15.3716 36.5 14.7 37.1716 14.7 38C14.7 38.8284 15.3716 39.5 16.2 39.5Z" stroke="white" stroke-miterlimit="10"/>
<path d="M24.1 37.8999C24.9284 37.8999 25.6 37.2283 25.6 36.3999C25.6 35.5715 24.9284 34.8999 24.1 34.8999C23.2715 34.8999 22.6 35.5715 22.6 36.3999C22.6 37.2283 23.2715 37.8999 24.1 37.8999Z" stroke="white" stroke-miterlimit="10"/>
<path d="M17 26C18.1046 26 19 25.1046 19 24C19 22.8954 18.1046 22 17 22C15.8954 22 15 22.8954 15 24C15 25.1046 15.8954 26 17 26Z" stroke="white" stroke-miterlimit="10"/>
<path d="M20.5 32C21.6046 32 22.5 31.1046 22.5 30C22.5 28.8954 21.6046 28 20.5 28C19.3954 28 18.5 28.8954 18.5 30C18.5 31.1046 19.3954 32 20.5 32Z" stroke="white" stroke-miterlimit="10"/>
<path d="M27.5 32C28.6046 32 29.5 31.1046 29.5 30C29.5 28.8954 28.6046 28 27.5 28C26.3954 28 25.5 28.8954 25.5 30C25.5 31.1046 26.3954 32 27.5 32Z" stroke="white" stroke-miterlimit="10"/>
<path d="M24 4.8999V4.8999" stroke="white" stroke-width="2" stroke-linecap="round" stroke-linejoin="round"/>
<path d="M35 5.69995V5.69995" stroke="white" stroke-width="1.5" stroke-linecap="round" stroke-linejoin="round"/>
<path d="M35 42.3999V42.3999" stroke="white" stroke-width="1.5" stroke-linecap="round" stroke-linejoin="round"/>
<path d="M40 33V33" stroke="white" stroke-width="1.5" stroke-linecap="round" stroke-linejoin="round"/>
<path d="M40 14V14" stroke="white" stroke-width="1.5" stroke-linecap="round" stroke-linejoin="round"/>
<path d="M8 33V33" stroke="white" stroke-width="1.5" stroke-linecap="round" stroke-linejoin="round"/>
<path d="M8 14V14" stroke="white" stroke-width="1.5" stroke-linecap="round" stroke-linejoin="round"/>
<path d="M13 5.69995V5.69995" stroke="white" stroke-width="1.5" stroke-linecap="round" stroke-linejoin="round"/>
<path d="M13 42.3999V42.3999" stroke="white" stroke-width="1.5" stroke-linecap="round" stroke-linejoin="round"/>
<path d="M24 43V43" stroke="white" stroke-width="2" stroke-linecap="round" stroke-linejoin="round"/>
<path d="M3.09998 24V24" stroke="white" stroke-width="2" stroke-linecap="round" stroke-linejoin="round"/>
<path d="M45 24V24" stroke="white" stroke-width="2" stroke-linecap="round" stroke-linejoin="round"/>
</svg>
