<svg width="48" height="48" viewBox="0 0 48 48" fill="none" xmlns="http://www.w3.org/2000/svg">
<path d="M20.9 6.10012L13.42 15.4201C11.72 17.5401 12.32 20.2601 14.74 21.4601L22.2 25.2001C23.18 25.6801 24.78 25.6801 25.76 25.2001L33.22 21.4601C35.64 20.2401 36.24 17.5201 34.54 15.4201L27.08 6.10012C25.4 3.96012 22.6 3.96012 20.9 6.10012Z" stroke="white" stroke-width="1.5" stroke-miterlimit="10" stroke-linecap="round" stroke-linejoin="round"/>
<path d="M24.0001 4.6001V15.1201" stroke="white" stroke-width="1.5" stroke-miterlimit="10" stroke-linecap="round" stroke-linejoin="round"/>
<path d="M15.6 21.4201L24 15.1201L32.4 21.4201" stroke="white" stroke-width="1.5" stroke-miterlimit="10" stroke-linecap="round" stroke-linejoin="round"/>
<path d="M17.54 28.86L20.76 30.3C22.82 31.22 25.18 31.22 27.26 30.3L30.48 28.86C33.36 27.58 36.02 31.06 34.02 33.5L27.1 41.96C25.4 44.04 22.62 44.04 20.9 41.96L14 33.5C11.98 31.06 14.64 27.58 17.54 28.86Z" stroke="white" stroke-width="1.5" stroke-miterlimit="10" stroke-linecap="round" stroke-linejoin="round"/>
</svg>
