<svg width="48" height="48" viewBox="0 0 48 48" fill="none" xmlns="http://www.w3.org/2000/svg">
<path d="M40 7H11C10.4 7 9.80001 7.2 9.40001 7.8L6.40002 11.8C5.40002 13.2 6.40002 15 8.00002 15H37C37.6 15 38.2 14.8 38.6 14.2L41.6 10.2C42.6 8.8 41.6 7 40 7Z" stroke="white" stroke-width="1.5" stroke-miterlimit="10"/>
<path d="M8.00002 20H37C37.6 20 38.2 20.2 38.6 20.8L41.6 24.8C42.6 26.2 41.6 28 40 28H11C10.4 28 9.80001 27.8 9.40001 27.2L6.40002 23.2C5.40002 21.8 6.40002 20 8.00002 20Z" stroke="white" stroke-width="1.5" stroke-miterlimit="10"/>
<path d="M40 33H11C10.4 33 9.80001 33.2 9.40001 33.8L6.40002 37.8C5.40002 39.2 6.40002 41 8.00002 41H37C37.6 41 38.2 40.8 38.6 40.2L41.6 36.2C42.6 34.8 41.6 33 40 33Z" stroke="white" stroke-width="1.5" stroke-miterlimit="10"/>
</svg>
