<svg width="48" height="48" viewBox="0 0 48 48" fill="none" xmlns="http://www.w3.org/2000/svg">
<path d="M11 4H8.2C6.2 4 5.2 6.2 6.6 7.6L18 19C21.2 22.2 26.6 22.2 29.8 19L41.2 7.6C42.8 6.2 41.8 4 39.8 4H37C35.4 4 33.8 4.6 32.6 5.8L25.4 13C24.6 13.8 23.2 13.8 22.4 13L15.4 5.8C14.2 4.6 12.6 4 11 4Z" stroke="white" stroke-width="1.5" stroke-miterlimit="10" stroke-linecap="round" stroke-linejoin="round"/>
<path d="M11 44.0001H8.19996C6.39996 44.0001 5.39996 41.8001 6.79996 40.4001L18 29.0001C21.2 25.8001 26.6 25.8001 29.8 29.0001L41.2 40.4001C42.6 41.8001 41.6 44.0001 39.8 44.0001H37C35.4 44.0001 33.8 43.4001 32.6 42.2001L25.4 35.0001C24.6 34.2001 23.2 34.2001 22.4 35.0001L15.2 42.2001C14.2 43.2001 12.6 44.0001 11 44.0001Z" stroke="white" stroke-width="1.5" stroke-miterlimit="10" stroke-linecap="round" stroke-linejoin="round"/>
</svg>
