<svg width="36" height="36" viewBox="0 0 36 36" fill="none" xmlns="http://www.w3.org/2000/svg">
<path d="M30.1101 36H5.88991C2.6422 36 0 33.3578 0 30.1101V5.88991C0 2.6422 2.6422 0 5.88991 0H30.1101C33.3578 0 36 2.6422 36 5.88991V30.1101C36 33.3578 33.3578 36 30.1101 36Z" fill="#2C2C2C"/>
<path d="M29.4168 24.0679V26.9993C27.1025 26.9993 25.4568 26.7936 24.4283 26.4336C23.4511 26.0736 22.834 25.405 22.5254 24.5307C22.2683 23.6564 22.1654 22.165 22.1654 20.0564V16.6622H21.1368C20.6226 15.7364 20.4683 15.4279 19.7483 14.7593C19.234 14.245 18.874 13.9364 18.2568 13.6279H22.114V8.2793H25.0454V13.6279H28.3883V16.6622H25.0454V20.0564C25.0454 21.445 25.0968 22.4222 25.2511 22.885C25.4054 23.3993 25.714 23.7079 26.2283 23.8107C26.8968 24.0164 27.9254 24.0679 29.4168 24.0679Z" fill="url(#paint0_linear_990_1028)"/>
<path d="M15.3256 13.525C16.4056 13.525 17.4341 13.8336 18.3084 14.4507C19.1827 15.0679 19.9027 15.9422 20.417 17.0222C20.9313 18.1022 21.1884 19.3364 21.1884 20.6736C21.1884 21.8564 20.9313 22.9364 20.417 23.965C19.9027 24.9936 19.1827 25.8164 18.3084 26.4336C17.4341 27.0507 16.4056 27.3079 15.3256 27.3079C12.3941 27.3079 10.697 25.7136 10.1827 22.5764H9.77128L10.0284 26.9479H6.99414V8.2793H10.0284V13.6279L9.77128 17.9479H10.2856C10.5941 16.5079 11.2113 15.4279 12.0856 14.6564C12.9599 13.9364 14.0399 13.525 15.3256 13.525ZM14.297 24.3764C15.0684 24.3764 15.737 24.2222 16.3027 23.8622C16.9198 23.5536 17.3827 23.0907 17.6913 22.525C18.0513 21.9593 18.2056 21.2907 18.2056 20.5707C18.2056 19.4393 17.8456 18.5136 17.0741 17.7422C16.3541 17.0222 15.377 16.6107 14.2456 16.6107C13.5256 16.6107 12.857 16.765 12.2399 17.125C11.6227 17.4336 11.1599 17.8964 10.8513 18.5136C10.4913 19.0793 10.337 19.7479 10.337 20.4679C10.337 21.1364 10.4913 21.7536 10.8513 22.3193C11.2113 22.9364 11.6741 23.3993 12.2913 23.7593C12.9084 24.1707 13.577 24.3764 14.297 24.3764Z" fill="url(#paint1_linear_990_1028)"/>
<defs>
<linearGradient id="paint0_linear_990_1028" x1="18.1033" y1="7.97593" x2="35.2595" y2="15.0857" gradientUnits="userSpaceOnUse">
<stop stop-color="#3B95FF"/>
<stop offset="0.523958" stop-color="#18B6D6"/>
<stop offset="1" stop-color="#1BCF58"/>
</linearGradient>
<linearGradient id="paint1_linear_990_1028" x1="6.7988" y1="7.97093" x2="26.949" y2="18.4197" gradientUnits="userSpaceOnUse">
<stop stop-color="#3B95FF"/>
<stop offset="0.523958" stop-color="#18B6D6"/>
<stop offset="1" stop-color="#1BCF58"/>
</linearGradient>
</defs>
</svg>
