<svg width="36" height="36" viewBox="0 0 36 36" fill="none" xmlns="http://www.w3.org/2000/svg">
<rect width="36" height="36" rx="6" fill="#1BCF58"/>
<path d="M15.6435 12.4826C16.6141 12.4826 17.4877 12.76 18.2643 13.3146C19.0547 13.8693 19.6787 14.632 20.1363 15.6026C20.5939 16.5594 20.8227 17.6341 20.8227 18.8266C20.8227 19.8666 20.5939 20.8373 20.1363 21.7386C19.6787 22.64 19.0547 23.361 18.2643 23.9018C17.4739 24.4288 16.6003 24.6922 15.6435 24.6922C13.0781 24.6922 11.5597 23.2986 11.0883 20.5114H10.7347L10.9427 24.3802H8.28027V7.74023H10.9427V12.6074L10.7347 16.4346H11.1715C11.4488 15.1728 11.9757 14.2021 12.7523 13.5226C13.5427 12.8293 14.5064 12.4826 15.6435 12.4826ZM14.7283 22.0506C15.3939 22.0506 15.9901 21.905 16.5171 21.6138C17.044 21.3226 17.4531 20.9274 17.7443 20.4282C18.0493 19.9152 18.2019 19.3397 18.2019 18.7018C18.2019 17.6896 17.876 16.8645 17.2243 16.2266C16.5725 15.5749 15.7405 15.249 14.7283 15.249C14.0765 15.249 13.4872 15.4016 12.9603 15.7066C12.4333 15.9978 12.0173 16.4069 11.7123 16.9338C11.4072 17.4469 11.2547 18.0154 11.2547 18.6394C11.2547 19.208 11.4072 19.7557 11.7123 20.2826C12.0312 20.8096 12.4541 21.2394 12.9811 21.5722C13.5219 21.8912 14.1043 22.0506 14.7283 22.0506Z" fill="white"/>
<path fill-rule="evenodd" clip-rule="evenodd" d="M20.5592 15.2699H21.3607V18.2859C21.3607 20.1163 21.4716 21.4267 21.6935 22.2171C21.9292 22.9936 22.4839 23.5483 23.3575 23.8811C24.2311 24.2139 25.694 24.3803 27.7463 24.3803V21.7803C26.4012 21.7803 25.4929 21.7248 25.0215 21.6139C24.5639 21.4891 24.2727 21.2117 24.1479 20.7819C24.0231 20.352 23.9607 19.52 23.9607 18.2859V15.2699H27.7255V12.6075H23.9607V8.57227H21.3607V12.6075H18.165C18.333 12.6981 18.4969 12.8005 18.6567 12.9146C19.4471 13.4693 20.0711 14.2319 20.5287 15.2026C20.5393 15.2249 20.5495 15.2473 20.5592 15.2699Z" fill="white"/>
<path d="M9.7665 26.6673H8.70676V27.0602L9.59849 27.0576V27.4867H8.70676V27.8796L9.7665 27.877V28.3061H8.28027V26.2409H9.7665V26.6673Z" fill="white"/>
<path d="M12.0612 26.2383L11.3711 27.2722L12.0612 28.3061H11.5727L11.1282 27.6392L10.681 28.3061H10.1925L10.8826 27.2722L10.1925 26.2383H10.681L11.1282 26.9051L11.5727 26.2383H12.0612Z" fill="white"/>
<path d="M14.2025 27.7271C14.1147 27.9201 13.9923 28.0648 13.8355 28.1613C13.6804 28.2578 13.4978 28.3061 13.2875 28.3061C13.0963 28.3061 12.93 28.2613 12.7887 28.1717C12.6491 28.0821 12.5423 27.958 12.4682 27.7995C12.3958 27.6409 12.3596 27.4617 12.3596 27.2618C12.3596 27.062 12.3958 26.8853 12.4682 26.732C12.5423 26.5769 12.6491 26.4563 12.7887 26.3701C12.9283 26.2822 13.0946 26.2383 13.2875 26.2383C13.5047 26.2383 13.6908 26.2908 13.8458 26.396C14.0027 26.4993 14.1302 26.6673 14.2284 26.9L13.8433 27.1378C13.8036 27.0103 13.7571 26.9138 13.7037 26.8483C13.652 26.7811 13.5934 26.7363 13.5279 26.7139C13.4624 26.6915 13.3823 26.6803 13.2875 26.6803C13.148 26.6803 13.0317 26.7242 12.9386 26.8121C12.8456 26.8983 12.799 27.0482 12.799 27.2618C12.799 27.4927 12.8473 27.6513 12.9438 27.7374C13.042 27.8219 13.1652 27.8641 13.3134 27.8641C13.4409 27.8641 13.5426 27.8374 13.6184 27.784C13.6942 27.7305 13.7571 27.6315 13.8071 27.4867L14.2025 27.7271Z" fill="white"/>
<path d="M15.9737 26.2383H16.4002V28.3061H15.9737V27.4841H15.082V28.3061H14.6555V26.2383H15.082V27.0602L15.9737 27.0576V26.2383Z" fill="white"/>
<path d="M18.6138 28.3061L18.4483 27.9235H17.4739L17.3085 28.3061H16.8277L17.7168 26.2383H18.2002L19.0945 28.3061H18.6138ZM17.6626 27.4841L18.2571 27.4815L17.9598 26.7914L17.6626 27.4841Z" fill="white"/>
<path d="M20.8381 26.2383H21.2646V28.3061H20.8148L19.9463 26.9181V28.3061H19.5199V26.2383H19.9696L20.8381 27.6263V26.2383Z" fill="white"/>
<path d="M23.5608 27.1817C23.5608 27.9313 23.2481 28.3061 22.6226 28.3061C22.4227 28.3061 22.2529 28.2613 22.1134 28.1717C21.9738 28.0821 21.8687 27.9589 21.798 27.8021C21.7274 27.6452 21.6921 27.4652 21.6921 27.2618C21.6921 27.0602 21.7265 26.8827 21.7954 26.7294C21.8661 26.576 21.9712 26.4563 22.1108 26.3701C22.2504 26.2822 22.4201 26.2383 22.62 26.2383C22.8354 26.2383 23.0189 26.2908 23.1705 26.396C23.3239 26.4993 23.454 26.6673 23.5608 26.9L23.1757 27.1378C23.1326 27.0189 23.0895 26.9275 23.0465 26.8638C23.0051 26.7983 22.9508 26.7509 22.8836 26.7216C22.8181 26.6923 22.7303 26.6777 22.62 26.6777C22.4632 26.6777 22.3426 26.7268 22.2581 26.825C22.1737 26.9232 22.1315 27.0688 22.1315 27.2618C22.1315 27.6616 22.2952 27.8632 22.6226 27.8667C22.7346 27.8649 22.8311 27.84 22.9121 27.7917C22.9948 27.7435 23.0585 27.6702 23.1033 27.572H22.5166V27.1843L23.1757 27.1817H23.5608Z" fill="white"/>
<path d="M25.4313 26.6673H24.3715V27.0602L25.2632 27.0576V27.4867H24.3715V27.8796L25.4313 27.877V28.3061H23.945V26.2409H25.4313V26.6673Z" fill="white"/>
<path d="M27.7467 26.9232C27.7467 27.1783 27.6097 27.3558 27.3357 27.4557L27.7027 28.3061H27.2142L26.8834 27.541C26.8144 27.5444 26.7636 27.5462 26.7309 27.5462H26.294V28.3061H25.8572V26.2383H26.7309C27.0186 26.2383 27.2599 26.2848 27.4546 26.3779C27.6493 26.4709 27.7467 26.6527 27.7467 26.9232ZM26.7309 27.13C26.867 27.13 26.9713 27.1231 27.0436 27.1093C27.1177 27.0938 27.1694 27.0697 27.1987 27.037C27.228 27.0042 27.2426 26.9603 27.2426 26.9051C27.2426 26.85 27.228 26.8061 27.1987 26.7733C27.1694 26.7406 27.1177 26.7165 27.0436 26.7009C26.9713 26.6854 26.867 26.6777 26.7309 26.6777H26.294V27.13H26.7309Z" fill="white"/>
</svg>
