<svg width="36" height="36" viewBox="0 0 36 36" fill="none" xmlns="http://www.w3.org/2000/svg">
<rect width="36" height="36" rx="6" fill="#18B6D6"/>
<path d="M15.6542 11.8225C16.6249 11.8225 17.4985 12.0998 18.275 12.6545C19.0654 13.2091 19.6894 13.9718 20.147 14.9425C20.6046 15.8993 20.8334 16.9739 20.8334 18.1665C20.8334 19.2065 20.6046 20.1771 20.147 21.0785C19.6894 21.9798 19.0654 22.7009 18.275 23.2417C17.4846 23.7686 16.611 24.0321 15.6542 24.0321C13.0889 24.0321 11.5705 22.6385 11.099 19.8513H10.7454L10.9534 23.7201H8.29102V7.08008H10.9534V11.9473L10.7454 15.7745H11.1822C11.4595 14.5126 11.9865 13.5419 12.763 12.8625C13.5534 12.1691 14.5171 11.8225 15.6542 11.8225ZM14.739 21.3905C15.4046 21.3905 16.0009 21.2449 16.5278 20.9537C17.0547 20.6625 17.4638 20.2673 17.755 19.7681C18.0601 19.255 18.2126 18.6795 18.2126 18.0417C18.2126 17.0294 17.8867 16.2043 17.235 15.5665C16.5833 14.9147 15.7513 14.5889 14.739 14.5889C14.0873 14.5889 13.4979 14.7414 12.971 15.0465C12.4441 15.3377 12.0281 15.7467 11.723 16.2737C11.4179 16.7867 11.2654 17.3553 11.2654 17.9793C11.2654 18.5478 11.4179 19.0955 11.723 19.6225C12.0419 20.1494 12.4649 20.5793 12.9918 20.9121C13.5326 21.231 14.115 21.3905 14.739 21.3905Z" fill="white"/>
<path fill-rule="evenodd" clip-rule="evenodd" d="M20.5699 14.6097H21.3714V17.6257C21.3714 19.4561 21.4824 20.7665 21.7042 21.5569C21.94 22.3334 22.4946 22.8881 23.3682 23.2209C24.2418 23.5537 25.7048 23.7201 27.757 23.7201V21.1201C26.412 21.1201 25.5037 21.0646 25.0322 20.9537C24.5746 20.8289 24.2834 20.5516 24.1586 20.1217C24.0338 19.6918 23.9714 18.8598 23.9714 17.6257V14.6097H27.7362V11.9473H23.9714V7.91211H21.3714V11.9473H18.1758C18.3438 12.038 18.5076 12.1403 18.6674 12.2545C19.4578 12.8091 20.0818 13.5718 20.5394 14.5425C20.5501 14.5647 20.5602 14.5872 20.5699 14.6097Z" fill="white"/>
<path d="M8.87493 25.689L9.37894 28.0102L9.94109 25.689H10.5963L11.1003 28.0102L11.6625 25.689H12.3177L11.4415 28.9128H10.732L10.2551 26.7569L9.72011 28.9128H9.01063L8.21973 25.689H8.87493Z" fill="white"/>
<path d="M15.251 28.9128L15.0029 28.3164H13.5413L13.2932 28.9128H12.5721L13.9057 25.689H14.6307L15.9722 28.9128H15.251ZM13.8243 27.6314L14.716 27.6273L14.2702 26.5514L13.8243 27.6314Z" fill="white"/>
<path d="M17.2499 28.2479H18.8394V28.9128L17.2499 28.9088V28.9128H16.6102V25.689H17.2499V28.2479Z" fill="white"/>
<path d="M20.118 28.2479H21.7076V28.9128L20.118 28.9088V28.9128H19.4783V25.689H20.118V28.2479Z" fill="white"/>
<path d="M24.5758 26.3579H22.9862V26.9705L24.3238 26.9664V27.6354H22.9862V28.2479L24.5758 28.2439V28.9128H22.3465V25.693H24.5758V26.3579Z" fill="white"/>
<path d="M27.8317 25.689V26.3539H26.843V28.9128H26.2033V26.3539H25.2147V25.693H26.2033V25.689H27.8317Z" fill="white"/>
</svg>
