<svg width="36" height="36" viewBox="0 0 36 36" fill="none" xmlns="http://www.w3.org/2000/svg">
<rect width="36" height="36" rx="6" fill="#3B95FF"/>
<path d="M15.6542 11.2824C16.6249 11.2824 17.4985 11.5598 18.275 12.1144C19.0654 12.6691 19.6894 13.4318 20.147 14.4024C20.6046 15.3592 20.8334 16.4339 20.8334 17.6264C20.8334 18.6664 20.6046 19.6371 20.147 20.5384C19.6894 21.4398 19.0654 22.1608 18.275 22.7016C17.4846 23.2286 16.611 23.492 15.6542 23.492C13.0889 23.492 11.5705 22.0984 11.099 19.3112H10.7454L10.9534 23.18H8.29102V6.54004H10.9534V11.4072L10.7454 15.2344H11.1822C11.4595 13.9726 11.9865 13.0019 12.763 12.3224C13.5534 11.6291 14.5171 11.2824 15.6542 11.2824ZM14.739 20.8504C15.4046 20.8504 16.0009 20.7048 16.5278 20.4136C17.0547 20.1224 17.4638 19.7272 17.755 19.228C18.0601 18.715 18.2126 18.1395 18.2126 17.5016C18.2126 16.4894 17.8867 15.6643 17.235 15.0264C16.5833 14.3747 15.7513 14.0488 14.739 14.0488C14.0873 14.0488 13.4979 14.2014 12.971 14.5064C12.4441 14.7976 12.0281 15.2067 11.723 15.7336C11.4179 16.2467 11.2654 16.8152 11.2654 17.4392C11.2654 18.0078 11.4179 18.5555 11.723 19.0824C12.0419 19.6094 12.4649 20.0392 12.9918 20.372C13.5326 20.691 14.115 20.8504 14.739 20.8504Z" fill="white"/>
<path fill-rule="evenodd" clip-rule="evenodd" d="M20.5699 14.0697H21.3714V17.0857C21.3714 18.9161 21.4823 20.2265 21.7042 21.0169C21.9399 21.7934 22.4946 22.3481 23.3682 22.6809C24.2418 23.0137 25.7047 23.1801 27.757 23.1801V20.5801C26.4119 20.5801 25.5037 20.5246 25.0322 20.4137C24.5746 20.2889 24.2834 20.0115 24.1586 19.5817C24.0338 19.1518 23.9714 18.3198 23.9714 17.0857V14.0697H27.7362V11.4073H23.9714V7.37207H21.3714V11.4073H18.1758C18.3438 11.4979 18.5076 11.6003 18.6674 11.7144C19.4578 12.2691 20.0818 13.0317 20.5394 14.0024C20.5501 14.0247 20.5602 14.0471 20.5699 14.0697Z" fill="white"/>
<path d="M11.3088 25.6865L9.89012 27.5624L11.3088 29.4477H10.3889L9.44621 28.1548L8.97483 28.7754V29.4477H8.21973V25.6865H8.97483V27.6376L10.3889 25.6865H11.3088Z" fill="white"/>
<path d="M15.228 29.4477L14.9351 28.7519H13.2098L12.9169 29.4477H12.0657L13.64 25.6865H14.4958L16.0792 29.4477H15.228ZM13.5439 27.9526L14.5965 27.9479L14.0702 26.6926L13.5439 27.9526Z" fill="white"/>
<path d="M17.3504 28.1266C17.4602 28.3303 17.5868 28.4729 17.7302 28.5544C17.8736 28.6328 18.0383 28.672 18.2244 28.672C18.4289 28.672 18.586 28.6469 18.6958 28.5967C18.8057 28.5435 18.8606 28.4651 18.8606 28.3617C18.8606 28.2269 18.798 28.1219 18.6729 28.0467C18.5478 27.9714 18.3297 27.9041 18.0185 27.8445L17.7531 27.7928C17.4449 27.7332 17.2009 27.5953 17.0209 27.3791C16.8408 27.1597 16.7508 26.8979 16.7508 26.5939C16.7508 26.4059 16.8027 26.2444 16.9064 26.1097C17.0132 25.9717 17.1597 25.8667 17.3458 25.7947C17.5349 25.7226 17.7516 25.6865 17.9956 25.6865C18.3739 25.6865 18.6745 25.7602 18.8972 25.9075C19.1199 26.0517 19.2999 26.2883 19.4372 26.6174L18.7919 26.8854C18.7095 26.7381 18.6012 26.6268 18.467 26.5516C18.3328 26.4764 18.1604 26.4388 17.9499 26.4388C17.8065 26.4388 17.6966 26.4591 17.6204 26.4999C17.5441 26.5406 17.506 26.619 17.506 26.735C17.506 26.8415 17.5471 26.9199 17.6295 26.97C17.7149 27.017 17.8629 27.0656 18.0734 27.1158L18.2839 27.1675C18.7599 27.2835 19.1016 27.4496 19.3091 27.6659C19.5165 27.8821 19.6187 28.1454 19.6157 28.4557C19.6126 28.7817 19.4814 29.0293 19.2221 29.1985C18.9658 29.3647 18.618 29.4477 18.1787 29.4477C17.8065 29.4477 17.5014 29.3678 17.2634 29.2079C17.0254 29.045 16.8058 28.7832 16.6044 28.4228L17.3504 28.1266Z" fill="white"/>
<path d="M21.0265 28.1266C21.1363 28.3303 21.263 28.4729 21.4063 28.5544C21.5497 28.6328 21.7145 28.672 21.9006 28.672C22.105 28.672 22.2621 28.6469 22.372 28.5967C22.4818 28.5435 22.5367 28.4651 22.5367 28.3617C22.5367 28.2269 22.4742 28.1219 22.3491 28.0467C22.224 27.9714 22.0059 27.9041 21.6947 27.8445L21.4292 27.7928C21.1211 27.7332 20.877 27.5953 20.697 27.3791C20.517 27.1597 20.427 26.8979 20.427 26.5939C20.427 26.4059 20.4789 26.2444 20.5826 26.1097C20.6894 25.9717 20.8358 25.8667 21.0219 25.7947C21.2111 25.7226 21.4277 25.6865 21.6718 25.6865C22.0501 25.6865 22.3506 25.7602 22.5733 25.9075C22.796 26.0517 22.9761 26.2883 23.1133 26.6174L22.4681 26.8854C22.3857 26.7381 22.2774 26.6268 22.1431 26.5516C22.0089 26.4764 21.8365 26.4388 21.626 26.4388C21.4826 26.4388 21.3728 26.4591 21.2965 26.4999C21.2202 26.5406 21.1821 26.619 21.1821 26.735C21.1821 26.8415 21.2233 26.9199 21.3057 26.97C21.3911 27.017 21.5391 27.0656 21.7496 27.1158L21.9601 27.1675C22.436 27.2835 22.7777 27.4496 22.9852 27.6659C23.1927 27.8821 23.2949 28.1454 23.2918 28.4557C23.2888 28.7817 23.1576 29.0293 22.8983 29.1985C22.642 29.3647 22.2942 29.4477 21.8548 29.4477C21.4826 29.4477 21.1775 29.3678 20.9396 29.2079C20.7016 29.045 20.4819 28.7832 20.2805 28.4228L21.0265 28.1266Z" fill="white"/>
<path d="M26.9805 29.4477L26.6876 28.7519H24.9623L24.6694 29.4477H23.8182L25.3924 25.6865H26.2482L27.8317 29.4477H26.9805ZM25.2963 27.9526L26.3489 27.9479L25.8226 26.6926L25.2963 27.9526Z" fill="white"/>
</svg>
