<svg width="2524" height="2215" viewBox="0 0 2524 2215" fill="none" xmlns="http://www.w3.org/2000/svg">
<g filter="url(#filter0_f_370_256)">
<path fill-rule="evenodd" clip-rule="evenodd" d="M658 1893.58C902.374 1720.29 1061.86 1435.17 1061.86 1112.79C1061.86 790.411 902.374 505.284 658 332.001C1002.38 424.681 1255.86 739.133 1255.86 1112.79C1255.86 1486.44 1002.38 1800.9 658 1893.58Z" fill="url(#paint0_linear_370_256)"/>
</g>
<g filter="url(#filter1_f_370_256)">
<path fill-rule="evenodd" clip-rule="evenodd" d="M2363.14 160C2232.69 252.499 2147.56 404.701 2147.56 576.787C2147.56 748.873 2232.69 901.075 2363.14 993.574C2179.31 944.101 2044 776.245 2044 576.787C2044 377.328 2179.31 209.472 2363.14 160Z" fill="url(#paint1_linear_370_256)"/>
</g>
<g filter="url(#filter2_f_370_256)">
<path fill-rule="evenodd" clip-rule="evenodd" d="M1059 1529.58C1144.63 1437.08 1200.52 1284.87 1200.52 1112.79C1200.52 940.702 1144.63 788.5 1059 696.001C1179.68 745.474 1268.5 913.33 1268.5 1112.79C1268.5 1312.25 1179.68 1480.1 1059 1529.58Z" fill="#C6FFF5"/>
</g>
<g filter="url(#filter3_f_370_256)">
<path fill-rule="evenodd" clip-rule="evenodd" d="M1688.93 792.175C1643.09 891.614 1617.52 1002.32 1617.52 1119C1617.52 1235.68 1643.09 1346.39 1688.93 1445.83C1419.01 1389.88 1231 1264.59 1231 1119C1231 973.412 1419.01 848.122 1688.93 792.175Z" fill="url(#paint2_linear_370_256)"/>
</g>
<g filter="url(#filter4_f_370_256)">
<path fill-rule="evenodd" clip-rule="evenodd" d="M200 2014.65C245.838 1915.21 271.406 1804.5 271.406 1687.83C271.406 1571.15 245.838 1460.44 200 1361C469.917 1416.95 657.929 1542.24 657.929 1687.83C657.929 1833.41 469.917 1958.7 200 2014.65Z" fill="url(#paint3_linear_370_256)"/>
</g>
<defs>
<filter id="filter0_f_370_256" x="458" y="132.001" width="997.859" height="1961.57" filterUnits="userSpaceOnUse" color-interpolation-filters="sRGB">
<feFlood flood-opacity="0" result="BackgroundImageFix"/>
<feBlend mode="normal" in="SourceGraphic" in2="BackgroundImageFix" result="shape"/>
<feGaussianBlur stdDeviation="100" result="effect1_foregroundBlur_370_256"/>
</filter>
<filter id="filter1_f_370_256" x="1884" y="0" width="639.14" height="1153.57" filterUnits="userSpaceOnUse" color-interpolation-filters="sRGB">
<feFlood flood-opacity="0" result="BackgroundImageFix"/>
<feBlend mode="normal" in="SourceGraphic" in2="BackgroundImageFix" result="shape"/>
<feGaussianBlur stdDeviation="80" result="effect1_foregroundBlur_370_256"/>
</filter>
<filter id="filter2_f_370_256" x="959" y="596.001" width="409.499" height="1033.57" filterUnits="userSpaceOnUse" color-interpolation-filters="sRGB">
<feFlood flood-opacity="0" result="BackgroundImageFix"/>
<feBlend mode="normal" in="SourceGraphic" in2="BackgroundImageFix" result="shape"/>
<feGaussianBlur stdDeviation="50" result="effect1_foregroundBlur_370_256"/>
</filter>
<filter id="filter3_f_370_256" x="1031" y="592.175" width="857.929" height="1053.65" filterUnits="userSpaceOnUse" color-interpolation-filters="sRGB">
<feFlood flood-opacity="0" result="BackgroundImageFix"/>
<feBlend mode="normal" in="SourceGraphic" in2="BackgroundImageFix" result="shape"/>
<feGaussianBlur stdDeviation="100" result="effect1_foregroundBlur_370_256"/>
</filter>
<filter id="filter4_f_370_256" x="0" y="1161" width="857.929" height="1053.65" filterUnits="userSpaceOnUse" color-interpolation-filters="sRGB">
<feFlood flood-opacity="0" result="BackgroundImageFix"/>
<feBlend mode="normal" in="SourceGraphic" in2="BackgroundImageFix" result="shape"/>
<feGaussianBlur stdDeviation="100" result="effect1_foregroundBlur_370_256"/>
</filter>
<linearGradient id="paint0_linear_370_256" x1="669.321" y1="261.001" x2="-172.578" y2="1116.03" gradientUnits="userSpaceOnUse">
<stop stop-color="#060723"/>
<stop offset="0.156957" stop-color="#1B7F55"/>
<stop offset="0.448498" stop-color="#18B6D6"/>
<stop offset="0.722097" stop-color="#0E516F"/>
<stop offset="1" stop-color="#060723"/>
</linearGradient>
<linearGradient id="paint1_linear_370_256" x1="2357.1" y1="1031.47" x2="2806.5" y2="575.053" gradientUnits="userSpaceOnUse">
<stop stop-color="#060723"/>
<stop offset="0.156957" stop-color="#1B7F55"/>
<stop offset="0.448498" stop-color="#18B6D6"/>
<stop offset="0.722097" stop-color="#0E516F"/>
<stop offset="1" stop-color="#060723"/>
</linearGradient>
<linearGradient id="paint2_linear_370_256" x1="1938.28" y1="1815.02" x2="2626.21" y2="1116.35" gradientUnits="userSpaceOnUse">
<stop stop-color="#060723"/>
<stop offset="0.156957" stop-color="#1B7F55"/>
<stop offset="0.410036" stop-color="#18B6D6"/>
<stop offset="0.722097" stop-color="#0E6F5D"/>
<stop offset="1" stop-color="#060723"/>
</linearGradient>
<linearGradient id="paint3_linear_370_256" x1="-49.3454" y1="991.809" x2="-737.282" y2="1690.48" gradientUnits="userSpaceOnUse">
<stop stop-color="#060723"/>
<stop offset="0.156957" stop-color="#1B7F55"/>
<stop offset="0.410036" stop-color="#18B6D6"/>
<stop offset="0.722097" stop-color="#0E6F5D"/>
<stop offset="1" stop-color="#060723"/>
</linearGradient>
</defs>
</svg>
