<svg width="2978" height="2459" viewBox="0 0 2978 2459" fill="none" xmlns="http://www.w3.org/2000/svg">
<g filter="url(#filter0_f_687_383)">
<path d="M1567.35 1119.4C1197.65 983.65 786.035 698.784 783.693 600L600.361 1680.56C728.852 1723.32 1063.21 1817.31 1372.71 1851.15C1759.58 1893.46 2357.8 1736.32 2376.44 1488.95C2395.08 1241.58 2029.48 1289.1 1567.35 1119.4Z" fill="url(#paint0_linear_687_383)"/>
</g>
<g filter="url(#filter1_f_687_383)">
<path d="M1205.28 1218.12C1003.64 1156.98 775.354 1038.96 771.313 1002L703.714 1400.42C773.672 1420.02 955.227 1464.56 1121.78 1485.94C1329.98 1512.66 1645.63 1470.85 1648.62 1378.98C1651.62 1287.11 1457.34 1294.54 1205.28 1218.12Z" fill="url(#paint1_linear_687_383)"/>
</g>
<defs>
<filter id="filter0_f_687_383" x="0.361084" y="0" width="2976.76" height="2458.02" filterUnits="userSpaceOnUse" color-interpolation-filters="sRGB">
<feFlood flood-opacity="0" result="BackgroundImageFix"/>
<feBlend mode="normal" in="SourceGraphic" in2="BackgroundImageFix" result="shape"/>
<feGaussianBlur stdDeviation="300" result="effect1_foregroundBlur_687_383"/>
</filter>
<filter id="filter1_f_687_383" x="403.714" y="702" width="1544.94" height="1091.9" filterUnits="userSpaceOnUse" color-interpolation-filters="sRGB">
<feFlood flood-opacity="0" result="BackgroundImageFix"/>
<feBlend mode="normal" in="SourceGraphic" in2="BackgroundImageFix" result="shape"/>
<feGaussianBlur stdDeviation="150" result="effect1_foregroundBlur_687_383"/>
</filter>
<linearGradient id="paint0_linear_687_383" x1="2360.5" y1="2012" x2="913.043" y2="1680.96" gradientUnits="userSpaceOnUse">
<stop stop-color="#3B95FF"/>
<stop offset="0.508333" stop-color="#18B6D6"/>
<stop offset="1" stop-color="#1BCF58"/>
</linearGradient>
<linearGradient id="paint1_linear_687_383" x1="1654.86" y1="1573.9" x2="636.462" y2="1311.09" gradientUnits="userSpaceOnUse">
<stop stop-color="#FCFDFF"/>
<stop offset="0.508333" stop-color="#9CEEFF"/>
<stop offset="1" stop-color="#C0FCD5"/>
</linearGradient>
</defs>
</svg>
