<svg width="2483" height="726" viewBox="0 0 2483 726" fill="none" xmlns="http://www.w3.org/2000/svg">
<g filter="url(#filter0_f_514_332)">
<path fill-rule="evenodd" clip-rule="evenodd" d="M2373 110C2121.88 316.769 1708.68 451.712 1241.5 451.712C774.318 451.712 361.117 316.769 110 110C244.31 401.388 700.007 615.858 1241.5 615.858C1782.99 615.858 2238.69 401.388 2373 110Z" fill="url(#paint0_linear_514_332)"/>
</g>
<g filter="url(#filter1_f_514_332)">
<path fill-rule="evenodd" clip-rule="evenodd" d="M2086 238C1898.58 392.323 1590.18 493.039 1241.5 493.039C892.817 493.039 584.423 392.323 397 238C497.242 455.479 837.355 615.55 1241.5 615.551C1645.65 615.551 1985.76 455.479 2086 238Z" fill="url(#paint1_linear_514_332)"/>
</g>
<g filter="url(#filter2_f_514_332)">
<path fill-rule="evenodd" clip-rule="evenodd" d="M2086 238C1898.58 392.323 1590.18 493.039 1241.5 493.039C892.817 493.039 584.423 392.323 397 238C497.242 455.479 837.355 615.55 1241.5 615.551C1645.65 615.551 1985.76 455.479 2086 238Z" fill="url(#paint2_linear_514_332)"/>
</g>
<defs>
<filter id="filter0_f_514_332" x="0" y="0" width="2483" height="725.857" filterUnits="userSpaceOnUse" color-interpolation-filters="sRGB">
<feFlood flood-opacity="0" result="BackgroundImageFix"/>
<feBlend mode="normal" in="SourceGraphic" in2="BackgroundImageFix" result="shape"/>
<feGaussianBlur stdDeviation="55" result="effect1_foregroundBlur_514_332"/>
</filter>
<filter id="filter1_f_514_332" x="377" y="218" width="1729" height="417.551" filterUnits="userSpaceOnUse" color-interpolation-filters="sRGB">
<feFlood flood-opacity="0" result="BackgroundImageFix"/>
<feBlend mode="normal" in="SourceGraphic" in2="BackgroundImageFix" result="shape"/>
<feGaussianBlur stdDeviation="10" result="effect1_foregroundBlur_514_332"/>
</filter>
<filter id="filter2_f_514_332" x="391" y="232" width="1701" height="389.551" filterUnits="userSpaceOnUse" color-interpolation-filters="sRGB">
<feFlood flood-opacity="0" result="BackgroundImageFix"/>
<feBlend mode="normal" in="SourceGraphic" in2="BackgroundImageFix" result="shape"/>
<feGaussianBlur stdDeviation="3" result="effect1_foregroundBlur_514_332"/>
</filter>
<linearGradient id="paint0_linear_514_332" x1="1453.5" y1="196.357" x2="1453.5" y2="649.857" gradientUnits="userSpaceOnUse">
<stop stop-color="#060723"/>
<stop offset="0.57279" stop-color="#183B63"/>
<stop offset="1" stop-color="#75C97E"/>
</linearGradient>
<linearGradient id="paint1_linear_514_332" x1="1399.73" y1="491.358" x2="1399.73" y2="705.858" gradientUnits="userSpaceOnUse">
<stop stop-color="#10500F" stop-opacity="0"/>
<stop offset="1" stop-color="#CCD56C"/>
</linearGradient>
<linearGradient id="paint2_linear_514_332" x1="1399.73" y1="562.358" x2="1409" y2="615.858" gradientUnits="userSpaceOnUse">
<stop stop-color="#10500F" stop-opacity="0"/>
<stop offset="1" stop-color="#E0FFF6" stop-opacity="0.9"/>
</linearGradient>
</defs>
</svg>
