<svg width="261" height="60" viewBox="0 0 261 60" fill="none" xmlns="http://www.w3.org/2000/svg">
<path d="M50.1835 60H9.81651C4.40367 60 0 55.5963 0 50.1835V9.81651C0 4.40367 4.40367 0 9.81651 0H50.1835C55.5963 0 60 4.40367 60 9.81651V50.1835C60 55.5963 55.5963 60 50.1835 60Z" fill="#1BCF58"/>
<path d="M49.0287 40.1146V45.0003C45.1716 45.0003 42.4287 44.6574 40.7144 44.0574C39.0859 43.4574 38.0573 42.3431 37.543 40.886C37.1144 39.4289 36.943 36.9431 36.943 33.4289V27.7717H35.2287C34.3716 26.2289 34.1144 25.7146 32.9144 24.6003C32.0573 23.7431 31.4573 23.2289 30.4287 22.7146H36.8573V13.8003H41.743V22.7146H47.3144V27.7717H41.743V33.4289C41.743 35.7431 41.8287 37.3717 42.0859 38.1431C42.343 39.0003 42.8573 39.5146 43.7144 39.686C44.8287 40.0289 46.543 40.1146 49.0287 40.1146Z" fill="white"/>
<path d="M25.5429 22.5431C27.3429 22.5431 29.0572 23.0574 30.5144 24.086C31.9715 25.1146 33.1715 26.5717 34.0286 28.3717C34.8858 30.1717 35.3144 32.2289 35.3144 34.4574C35.3144 36.4289 34.8858 38.2289 34.0286 39.9431C33.1715 41.6574 31.9715 43.0289 30.5144 44.0574C29.0572 45.086 27.3429 45.5146 25.5429 45.5146C20.6572 45.5146 17.8287 42.8574 16.9715 37.6289H16.2858L16.7144 44.9146H11.6572V13.8003H16.7144V22.7146L16.2858 29.9146H17.1429C17.6572 27.5146 18.6858 25.7146 20.1429 24.4289C21.6001 23.2289 23.4001 22.5431 25.5429 22.5431ZM23.8287 40.6289C25.1144 40.6289 26.2286 40.3717 27.1715 39.7717C28.2001 39.2574 28.9715 38.486 29.4858 37.5431C30.0858 36.6003 30.3429 35.486 30.3429 34.286C30.3429 32.4003 29.7429 30.8574 28.4572 29.5717C27.2572 28.3717 25.6287 27.686 23.7429 27.686C22.5429 27.686 21.4287 27.9431 20.4001 28.5431C19.3715 29.0574 18.6001 29.8289 18.0858 30.8574C17.4858 31.8003 17.2287 32.9146 17.2287 34.1146C17.2287 35.2289 17.4858 36.2574 18.0858 37.2003C18.6858 38.2289 19.4572 39.0003 20.4858 39.6003C21.5144 40.286 22.6287 40.6289 23.8287 40.6289Z" fill="white"/>
<path d="M89.2008 24.15H79.075V27.95L87.5955 27.925V32.075H79.075V35.875L89.2008 35.85V40H75V20.025H89.2008V24.15Z" fill="white"/>
<path d="M111.127 20L104.533 30L111.127 40H106.459L102.211 33.55L97.9387 40H93.271L99.8651 30L93.271 20H97.9387L102.211 26.45L106.459 20H111.127Z" fill="white"/>
<path d="M131.587 34.4C130.747 36.2667 129.578 37.6667 128.08 38.6C126.598 39.5333 124.853 40 122.844 40C121.017 40 119.428 39.5667 118.078 38.7C116.744 37.8333 115.723 36.6333 115.015 35.1C114.324 33.5667 113.978 31.8333 113.978 29.9C113.978 27.9667 114.324 26.2583 115.015 24.775C115.723 23.275 116.744 22.1083 118.078 21.275C119.411 20.425 121 20 122.844 20C124.919 20 126.697 20.5083 128.179 21.525C129.677 22.525 130.895 24.15 131.834 26.4L128.154 28.7C127.775 27.4667 127.331 26.5333 126.82 25.9C126.326 25.25 125.767 24.8167 125.141 24.6C124.515 24.3833 123.75 24.275 122.844 24.275C121.51 24.275 120.399 24.7 119.51 25.55C118.621 26.3833 118.176 27.8333 118.176 29.9C118.176 32.1333 118.637 33.6667 119.559 34.5C120.498 35.3167 121.675 35.725 123.091 35.725C124.309 35.725 125.281 35.4667 126.005 34.95C126.73 34.4333 127.331 33.475 127.808 32.075L131.587 34.4Z" fill="white"/>
<path d="M148.51 20H152.585V40H148.51V32.05H139.99V40H135.915V20H139.99V27.95L148.51 27.925V20Z" fill="white"/>
<path d="M173.736 40L172.155 36.3H162.844L161.264 40H156.67L165.166 20H169.784L178.329 40H173.736ZM164.647 32.05L170.327 32.025L167.487 25.35L164.647 32.05Z" fill="white"/>
<path d="M194.989 20H199.064V40H194.767L186.468 26.575V40H182.393V20H186.691L194.989 33.425V20Z" fill="white"/>
<path d="M221.005 29.125C221.005 36.375 218.016 40 212.04 40C210.13 40 208.508 39.5667 207.174 38.7C205.841 37.8333 204.836 36.6417 204.161 35.125C203.486 33.6083 203.149 31.8667 203.149 29.9C203.149 27.95 203.478 26.2333 204.136 24.75C204.812 23.2667 205.816 22.1083 207.15 21.275C208.483 20.425 210.105 20 212.015 20C214.073 20 215.826 20.5083 217.275 21.525C218.741 22.525 219.984 24.15 221.005 26.4L217.325 28.7C216.913 27.55 216.501 26.6667 216.09 26.05C215.695 25.4167 215.176 24.9583 214.534 24.675C213.908 24.3917 213.069 24.25 212.015 24.25C210.517 24.25 209.364 24.725 208.557 25.675C207.75 26.625 207.347 28.0333 207.347 29.9C207.347 33.7667 208.911 35.7167 212.04 35.75C213.11 35.7333 214.032 35.4917 214.806 35.025C215.596 34.5583 216.205 33.85 216.633 32.9H211.027V29.15L217.325 29.125H221.005Z" fill="white"/>
<path d="M238.876 24.15H228.751V27.95L237.271 27.925V32.075H228.751V35.875L238.876 35.85V40H224.676V20.025H238.876V24.15Z" fill="white"/>
<path d="M261 26.625C261 29.0917 259.691 30.8083 257.073 31.775L260.58 40H255.912L252.751 32.6C252.093 32.6333 251.607 32.65 251.294 32.65H247.12V40H242.946V20H251.294C254.044 20 256.349 20.45 258.209 21.35C260.07 22.25 261 24.0083 261 26.625ZM251.294 28.625C252.595 28.625 253.591 28.5583 254.282 28.425C254.99 28.275 255.484 28.0417 255.764 27.725C256.044 27.4083 256.184 26.9833 256.184 26.45C256.184 25.9167 256.044 25.4917 255.764 25.175C255.484 24.8583 254.99 24.625 254.282 24.475C253.591 24.325 252.595 24.25 251.294 24.25H247.12V28.625H251.294Z" fill="white"/>
</svg>
