<svg width="181" height="60" viewBox="0 0 181 60" fill="none" xmlns="http://www.w3.org/2000/svg">
<path d="M50.1835 60H9.81651C4.40367 60 0 55.5963 0 50.1835V9.81651C0 4.40367 4.40367 0 9.81651 0H50.1835C55.5963 0 60 4.40367 60 9.81651V50.1835C60 55.5963 55.5963 60 50.1835 60Z" fill="#3B95FF"/>
<path d="M49.0287 40.1146V45.0003C45.1716 45.0003 42.4287 44.6574 40.7144 44.0574C39.0859 43.4574 38.0573 42.3431 37.543 40.886C37.1144 39.4289 36.943 36.9431 36.943 33.4289V27.7717H35.2287C34.3716 26.2289 34.1144 25.7146 32.9144 24.6003C32.0573 23.7431 31.4573 23.2289 30.4287 22.7146H36.8573V13.8003H41.743V22.7146H47.3144V27.7717H41.743V33.4289C41.743 35.7431 41.8287 37.3717 42.0859 38.1431C42.343 39.0003 42.8573 39.5146 43.7144 39.686C44.8287 40.0289 46.543 40.1146 49.0287 40.1146Z" fill="white"/>
<path d="M25.5429 22.5431C27.3429 22.5431 29.0572 23.0574 30.5144 24.086C31.9715 25.1146 33.1715 26.5717 34.0286 28.3717C34.8858 30.1717 35.3144 32.2289 35.3144 34.4574C35.3144 36.4289 34.8858 38.2289 34.0286 39.9431C33.1715 41.6574 31.9715 43.0289 30.5144 44.0574C29.0572 45.086 27.3429 45.5146 25.5429 45.5146C20.6572 45.5146 17.8287 42.8574 16.9715 37.6289H16.2858L16.7144 44.9146H11.6572V13.8003H16.7144V22.7146L16.2858 29.9146H17.1429C17.6572 27.5146 18.6858 25.7146 20.1429 24.4289C21.6001 23.2289 23.4001 22.5431 25.5429 22.5431ZM23.8287 40.6289C25.1144 40.6289 26.2286 40.3717 27.1715 39.7717C28.2001 39.2574 28.9715 38.486 29.4858 37.5431C30.0858 36.6003 30.3429 35.486 30.3429 34.286C30.3429 32.4003 29.7429 30.8574 28.4572 29.5717C27.2572 28.3717 25.6287 27.686 23.7429 27.686C22.5429 27.686 21.4287 27.9431 20.4001 28.5431C19.3715 29.0574 18.6001 29.8289 18.0858 30.8574C17.4858 31.8003 17.2287 32.9146 17.2287 34.1146C17.2287 35.2289 17.4858 36.2574 18.0858 37.2003C18.6858 38.2289 19.4572 39.0003 20.4858 39.6003C21.5144 40.286 22.6287 40.6289 23.8287 40.6289Z" fill="white"/>
<path d="M91.6961 20L84.0282 29.975L91.6961 40H86.7244L81.629 33.125L79.0813 36.425V40H75V20H79.0813V30.375L86.7244 20H91.6961Z" fill="white"/>
<path d="M112.879 40L111.296 36.3H101.971L100.388 40H95.787L104.296 20H108.921L117.48 40H112.879ZM103.776 32.05L109.465 32.025L106.621 25.35L103.776 32.05Z" fill="white"/>
<path d="M124.35 32.975C124.943 34.0583 125.628 34.8167 126.403 35.25C127.178 35.6667 128.068 35.875 129.074 35.875C130.179 35.875 131.028 35.7417 131.622 35.475C132.216 35.1917 132.512 34.775 132.512 34.225C132.512 33.5083 132.174 32.95 131.498 32.55C130.822 32.15 129.643 31.7917 127.961 31.475L126.527 31.2C124.861 30.8833 123.542 30.15 122.569 29C121.596 27.8333 121.11 26.4417 121.11 24.825C121.11 23.825 121.39 22.9667 121.951 22.25C122.528 21.5167 123.319 20.9583 124.325 20.575C125.347 20.1917 126.518 20 127.837 20C129.882 20 131.506 20.3917 132.71 21.175C133.914 21.9417 134.887 23.2 135.629 24.95L132.141 26.375C131.696 25.5917 131.111 25 130.385 24.6C129.66 24.2 128.728 24 127.59 24C126.815 24 126.221 24.1083 125.809 24.325C125.397 24.5417 125.191 24.9583 125.191 25.575C125.191 26.1417 125.413 26.5583 125.859 26.825C126.32 27.075 127.12 27.3333 128.258 27.6L129.396 27.875C131.968 28.4917 133.815 29.375 134.936 30.525C136.058 31.675 136.61 33.075 136.594 34.725C136.577 36.4583 135.868 37.775 134.466 38.675C133.081 39.5583 131.201 40 128.827 40C126.815 40 125.166 39.575 123.88 38.725C122.594 37.8583 121.406 36.4667 120.318 34.55L124.35 32.975Z" fill="white"/>
<path d="M144.219 32.975C144.813 34.0583 145.497 34.8167 146.272 35.25C147.047 35.6667 147.937 35.875 148.943 35.875C150.048 35.875 150.897 35.7417 151.491 35.475C152.085 35.1917 152.381 34.775 152.381 34.225C152.381 33.5083 152.043 32.95 151.367 32.55C150.691 32.15 149.512 31.7917 147.83 31.475L146.396 31.2C144.73 30.8833 143.411 30.15 142.438 29C141.465 27.8333 140.979 26.4417 140.979 24.825C140.979 23.825 141.259 22.9667 141.82 22.25C142.397 21.5167 143.188 20.9583 144.194 20.575C145.217 20.1917 146.387 20 147.707 20C149.751 20 151.376 20.3917 152.579 21.175C153.783 21.9417 154.756 23.2 155.498 24.95L152.01 26.375C151.565 25.5917 150.98 25 150.254 24.6C149.529 24.2 148.597 24 147.459 24C146.684 24 146.091 24.1083 145.678 24.325C145.266 24.5417 145.06 24.9583 145.06 25.575C145.06 26.1417 145.283 26.5583 145.728 26.825C146.19 27.075 146.989 27.3333 148.127 27.6L149.265 27.875C151.837 28.4917 153.684 29.375 154.806 30.525C155.927 31.675 156.479 33.075 156.463 34.725C156.446 36.4583 155.737 37.775 154.336 38.675C152.95 39.5583 151.071 40 148.696 40C146.684 40 145.035 39.575 143.749 38.725C142.463 37.8583 141.276 36.4667 140.187 34.55L144.219 32.975Z" fill="white"/>
<path d="M176.399 40L174.816 36.3H165.491L163.908 40H159.307L167.816 20H172.442L181 40H176.399ZM167.297 32.05L172.986 32.025L170.141 25.35L167.297 32.05Z" fill="white"/>
</svg>
