<svg width="200" height="60" viewBox="0 0 200 60" fill="none" xmlns="http://www.w3.org/2000/svg">
<path d="M50.1835 60H9.81651C4.40367 60 0 55.5963 0 50.1835V9.81651C0 4.40367 4.40367 0 9.81651 0H50.1835C55.5963 0 60 4.40367 60 9.81651V50.1835C60 55.5963 55.5963 60 50.1835 60Z" fill="#18B6D6"/>
<path d="M49.0287 40.1141V44.9998C45.1716 44.9998 42.4287 44.6569 40.7144 44.0569C39.0859 43.4569 38.0573 42.3426 37.543 40.8855C37.1144 39.4284 36.943 36.9427 36.943 33.4284V27.7712H35.2287C34.3716 26.2284 34.1144 25.7141 32.9144 24.5998C32.0573 23.7427 31.4573 23.2284 30.4287 22.7141H36.8573V13.7998H41.743V22.7141H47.3144V27.7712H41.743V33.4284C41.743 35.7427 41.8287 37.3712 42.0859 38.1427C42.343 38.9998 42.8573 39.5141 43.7144 39.6855C44.8287 40.0284 46.543 40.1141 49.0287 40.1141Z" fill="white"/>
<path d="M25.5429 22.5427C27.3429 22.5427 29.0572 23.0569 30.5144 24.0855C31.9715 25.1141 33.1715 26.5712 34.0286 28.3712C34.8858 30.1712 35.3144 32.2284 35.3144 34.4569C35.3144 36.4284 34.8858 38.2284 34.0286 39.9427C33.1715 41.6569 31.9715 43.0284 30.5144 44.0569C29.0572 45.0855 27.3429 45.5141 25.5429 45.5141C20.6572 45.5141 17.8287 42.8569 16.9715 37.6284H16.2858L16.7144 44.9141H11.6572V13.7998H16.7144V22.7141L16.2858 29.9141H17.1429C17.6572 27.5141 18.6858 25.7141 20.1429 24.4284C21.6001 23.2284 23.4001 22.5427 25.5429 22.5427ZM23.8287 40.6284C25.1144 40.6284 26.2286 40.3712 27.1715 39.7712C28.2001 39.2569 28.9715 38.4855 29.4858 37.5427C30.0858 36.5998 30.3429 35.4855 30.3429 34.2855C30.3429 32.3998 29.7429 30.8569 28.4572 29.5712C27.2572 28.3712 25.6287 27.6855 23.7429 27.6855C22.5429 27.6855 21.4287 27.9427 20.4001 28.5427C19.3715 29.0569 18.6001 29.8284 18.0858 30.8569C17.4858 31.7998 17.2287 32.9141 17.2287 34.1141C17.2287 35.2284 17.4858 36.2569 18.0858 37.1998C18.6858 38.2284 19.4572 38.9998 20.4858 39.5998C21.5144 40.2855 22.6287 40.6284 23.8287 40.6284Z" fill="white"/>
<path d="M79.1761 20L82.3884 34.4L85.9714 20H90.1475L93.3598 34.4L96.9429 20H101.119L95.5344 40H91.0124L87.973 26.625L84.5629 40H80.0409L75 20H79.1761Z" fill="white"/>
<path d="M119.815 40L118.234 36.3H108.918L107.336 40H102.74L111.241 20H115.862L124.411 40H119.815ZM110.722 32.05L116.405 32.025L113.564 25.35L110.722 32.05Z" fill="white"/>
<path d="M132.555 35.875H142.686V40L132.555 39.975V40H128.478V20H132.555V35.875Z" fill="white"/>
<path d="M150.836 35.875H160.967V40L150.836 39.975V40H146.759V20H150.836V35.875Z" fill="white"/>
<path d="M179.248 24.15H169.117V27.95L177.642 27.925V32.075H169.117V35.875L179.248 35.85V40H165.04V20.025H179.248V24.15Z" fill="white"/>
<path d="M200 20V24.125H193.699V40H189.622V24.125H183.32V20.025H189.622V20H200Z" fill="white"/>
</svg>
