<svg width="213" height="26" viewBox="0 0 213 26" fill="none" xmlns="http://www.w3.org/2000/svg">
<path d="M84.0258 16.1742C84.0258 18.0671 84.1257 19.3431 84.3255 20.0025C84.5254 20.6618 84.9916 21.0871 85.7242 21.2785C86.479 21.4487 87.9331 21.5337 90.0866 21.5337V25.5215C86.8009 25.5215 84.4588 25.2663 83.0601 24.7558C81.6615 24.2454 80.7735 23.3947 80.3961 22.2037C80.0409 20.9914 79.8633 18.9816 79.8633 16.1742V11.5485H76.2002V7.46503H79.8633V1.27607H84.0258V7.46503H90.0533V11.5485H84.0258V16.1742Z" fill="white"/>
<path d="M96.0341 13.3669C96.3005 11.7718 96.7445 10.5489 97.3661 9.69816C97.9877 8.84744 98.787 8.26258 99.7638 7.94356C100.763 7.62454 102.05 7.46503 103.627 7.46503V11.8994C102.961 11.7718 102.339 11.708 101.762 11.708C100.008 11.708 98.6538 12.2397 97.6991 13.3031C96.7667 14.3452 96.3005 15.802 96.3005 17.6736V25.5215H92.0713V7.43313H96.3005L95.3681 13.3669H96.0341Z" fill="white"/>
<path d="M113.284 7.27362C116.414 7.27362 118.745 7.97546 120.277 9.37914C121.809 10.7616 122.574 12.8564 122.574 15.6638V25.5215H118.478L119.144 19.3963H118.645C117.846 23.7775 115.448 25.9681 111.452 25.9681C109.165 25.9681 107.456 25.5002 106.324 24.5644C105.192 23.6286 104.625 22.2994 104.625 20.5767C104.625 18.7264 105.391 17.2802 106.923 16.238C108.455 15.1959 110.664 14.6748 113.55 14.6748H118.412C118.19 13.5476 117.657 12.7182 116.813 12.1865C115.992 11.6335 114.815 11.3571 113.284 11.3571C112.218 11.3571 111.319 11.5697 110.586 11.9951C109.854 12.3992 109.154 13.0372 108.488 13.9092L105.092 11.708C106.157 10.2405 107.345 9.13456 108.655 8.39018C109.987 7.64581 111.53 7.27362 113.284 7.27362ZM112.085 21.8528C113.95 21.8528 115.382 21.4699 116.381 20.7043C117.38 19.9387 118.012 18.8115 118.279 17.3227H113.55C111.952 17.3227 110.775 17.5247 110.02 17.9288C109.265 18.3117 108.888 18.9072 108.888 19.7153C108.888 20.3534 109.154 20.8744 109.687 21.2785C110.22 21.6614 111.019 21.8528 112.085 21.8528Z" fill="white"/>
<path d="M136.725 6.9865C139.367 6.9865 141.343 7.77341 142.653 9.34724C143.985 10.9211 144.651 13.4626 144.651 16.9718V25.5215H140.522V16.9718C140.522 14.9513 140.122 13.4626 139.323 12.5055C138.524 11.5485 137.258 11.0699 135.527 11.0699C133.773 11.0699 132.385 11.6442 131.364 12.7926C130.343 13.9198 129.832 15.5468 129.832 17.6736V25.5215H125.57V7.46503H129.832L128.9 13.3669H129.532C129.799 11.6654 130.243 10.3575 130.864 9.44295C131.486 8.50716 132.263 7.86912 133.196 7.52883C134.15 7.16728 135.327 6.9865 136.725 6.9865Z" fill="white"/>
<path d="M150.64 18.9497C151.173 19.9493 151.839 20.7149 152.638 21.2466C153.46 21.7571 154.503 22.0123 155.768 22.0123C158.477 22.0123 159.831 21.4487 159.831 20.3215C159.831 19.7685 159.565 19.3432 159.032 19.0454C158.499 18.7477 157.478 18.4605 155.968 18.1841L154.769 17.9607C152.239 17.5141 150.407 16.8335 149.275 15.919C148.143 14.9832 147.576 13.7497 147.576 12.2184C147.576 11.3252 147.843 10.5063 148.376 9.76196C148.931 9.01759 149.774 8.42209 150.907 7.97546C152.061 7.50757 153.482 7.27362 155.169 7.27362C157.345 7.27362 159.076 7.69898 160.364 8.54969C161.652 9.37914 162.717 10.6339 163.561 12.3141L159.998 13.9411C159.354 12.9202 158.666 12.2078 157.933 11.8037C157.2 11.3783 156.279 11.1656 155.169 11.1656C153.926 11.1656 153.027 11.3145 152.472 11.6123C151.939 11.8888 151.672 12.2609 151.672 12.7288C151.672 13.218 151.883 13.6008 152.305 13.8773C152.749 14.1538 153.571 14.4196 154.769 14.6748L155.968 14.8982C158.055 15.2597 159.665 15.7063 160.797 16.238C161.951 16.7697 162.75 17.3865 163.194 18.0883C163.638 18.7689 163.86 19.5984 163.86 20.5767C163.86 21.4699 163.572 22.3313 162.995 23.1607C162.44 23.9689 161.552 24.6282 160.331 25.1387C159.11 25.6491 157.589 25.9043 155.768 25.9043C153.526 25.9043 151.695 25.5002 150.274 24.692C148.875 23.8626 147.665 22.5227 146.644 20.6724L150.64 18.9497Z" fill="white"/>
<path d="M179.815 3.5092C177.973 3.48793 176.663 3.56237 175.886 3.73252C175.131 3.88139 174.609 4.22168 174.321 4.75337C174.054 5.28507 173.899 6.18896 173.855 7.46503H179.815V11.5485H173.821V25.5215H169.659V11.5485H165.962V7.46503H169.659C169.703 5.48712 169.958 3.99836 170.425 2.99877C170.891 1.97791 171.834 1.2229 173.255 0.733742C174.676 0.244581 176.863 0 179.815 0V3.5092Z" fill="white"/>
<path d="M184.73 17.865C184.974 19.1411 185.574 20.162 186.528 20.9276C187.505 21.672 188.726 22.0442 190.191 22.0442C192.545 22.0442 194.409 21.1722 195.786 19.4282L198.616 21.2785C197.751 22.8524 196.574 24.0327 195.087 24.8196C193.599 25.6065 191.967 26 190.191 26C188.438 26 186.817 25.5853 185.329 24.7558C183.842 23.9051 182.654 22.7673 181.766 21.3423C180.901 19.8961 180.468 18.3223 180.468 16.6209C180.468 14.9194 180.901 13.3562 181.766 11.9313C182.654 10.5063 183.842 9.37914 185.329 8.54969C186.817 7.69898 188.438 7.27362 190.191 7.27362C192.056 7.27362 193.699 7.72025 195.12 8.6135C196.541 9.50675 197.629 10.7616 198.383 12.3779C199.138 13.973 199.482 15.802 199.416 17.865H184.73ZM190.191 11.1656C188.815 11.1656 187.638 11.5485 186.662 12.3141C185.707 13.0585 185.074 14.0155 184.763 15.1853H195.42C195.153 13.9305 194.532 12.9521 193.555 12.2503C192.6 11.5272 191.479 11.1656 190.191 11.1656Z" fill="white"/>
<path d="M205.407 13.3669C205.674 11.7718 206.118 10.5489 206.739 9.69816C207.361 8.84744 208.16 8.26258 209.137 7.94356C210.136 7.62454 211.424 7.46503 213 7.46503V11.8994C212.334 11.7718 211.712 11.708 211.135 11.708C209.381 11.708 208.027 12.2397 207.072 13.3031C206.14 14.3452 205.674 15.802 205.674 17.6736V25.5215H201.444V7.43313H205.674L204.741 13.3669H205.407Z" fill="white"/>
<path d="M11.7884 7.27362C13.3425 7.27362 14.7411 7.69898 15.9843 8.54969C17.2497 9.40041 18.2487 10.5701 18.9814 12.0589C19.714 13.5264 20.0803 15.1746 20.0803 17.0037C20.0803 18.5988 19.714 20.0875 18.9814 21.4699C18.2487 22.8524 17.2497 23.9583 15.9843 24.7877C14.7189 25.5959 13.3203 26 11.7884 26C7.68135 26 5.2504 23.8626 4.49558 19.5877H3.92948L4.26248 25.5215H0V0H4.26248V7.46503L3.92948 13.335H4.62879C5.0728 11.3996 5.91641 9.91084 7.15964 8.86871C8.42506 7.80532 9.96799 7.27362 11.7884 7.27362ZM10.3232 21.9485C11.3888 21.9485 12.3434 21.7252 13.1871 21.2785C14.0307 20.8319 14.6856 20.2258 15.1518 19.4601C15.6402 18.6732 15.8844 17.7906 15.8844 16.8123C15.8844 15.2597 15.3627 13.9943 14.3193 13.016C13.2759 12.0164 11.9438 11.5166 10.3232 11.5166C9.27978 11.5166 8.33626 11.7505 7.49264 12.2184C6.64903 12.665 5.98301 13.2924 5.4946 14.1006C5.0062 14.8875 4.76199 15.7595 4.76199 16.7166C4.76199 17.5885 5.0062 18.4286 5.4946 19.2368C6.00521 20.045 6.68233 20.7043 7.52594 21.2147C8.39176 21.7039 9.32418 21.9485 10.3232 21.9485Z" fill="url(#paint0_linear_103_82)"/>
<path d="M26.345 17.865C26.5892 19.1411 27.1886 20.162 28.1432 20.9276C29.12 21.672 30.341 22.0442 31.8063 22.0442C34.1595 22.0442 36.0243 21.1722 37.4008 19.4282L40.2313 21.2785C39.3655 22.8524 38.1889 24.0327 36.7015 24.8196C35.214 25.6065 33.5823 26 31.8063 26C30.0524 26 28.4318 25.5853 26.9444 24.7558C25.4569 23.9051 24.2692 22.7673 23.3812 21.3423C22.5154 19.8961 22.0825 18.3223 22.0825 16.6209C22.0825 14.9194 22.5154 13.3562 23.3812 11.9313C24.2692 10.5063 25.4569 9.37914 26.9444 8.54969C28.4318 7.69898 30.0524 7.27362 31.8063 7.27362C33.6711 7.27362 35.3139 7.72025 36.7348 8.6135C38.1556 9.50675 39.2434 10.7616 39.9982 12.3779C40.753 13.973 41.0971 15.802 41.0305 17.865H26.345ZM31.8063 11.1656C30.4298 11.1656 29.2532 11.5485 28.2764 12.3141C27.3218 13.0585 26.6891 14.0155 26.3783 15.1853H37.0345C36.7681 13.9305 36.1464 12.9521 35.1696 12.2503C34.215 11.5272 33.0939 11.1656 31.8063 11.1656Z" fill="url(#paint1_linear_103_82)"/>
<path d="M49.5516 16.1742C49.5516 18.0671 49.6515 19.3431 49.8513 20.0025C50.0511 20.6618 50.5173 21.0871 51.2499 21.2785C52.0047 21.4487 53.4589 21.5337 55.6123 21.5337V25.5215C52.3266 25.5215 49.9845 25.2663 48.5859 24.7558C47.1873 24.2454 46.2992 23.3947 45.9218 22.2037C45.5666 20.9914 45.389 18.9816 45.389 16.1742V11.5485H41.7259V7.46503H45.389V1.27607H49.5516V7.46503H55.579V11.5485H49.5516V16.1742Z" fill="url(#paint2_linear_103_82)"/>
<path d="M64.9219 7.27362C68.0522 7.27362 70.3832 7.97546 71.9151 9.37914C73.4469 10.7616 74.2128 12.8564 74.2128 15.6638V25.5215H70.1168L70.7828 19.3963H70.2833C69.4841 23.7775 67.0865 25.9681 63.0904 25.9681C60.8037 25.9681 59.0943 25.5002 57.9621 24.5644C56.8299 23.6286 56.2638 22.2994 56.2638 20.5767C56.2638 18.7264 57.0297 17.2802 58.5615 16.238C60.0933 15.1959 62.3023 14.6748 65.1883 14.6748H70.0502C69.8282 13.5476 69.2954 12.7182 68.4518 12.1865C67.6304 11.6335 66.4538 11.3571 64.9219 11.3571C63.8563 11.3571 62.9572 11.5697 62.2246 11.9951C61.492 12.3992 60.7927 13.0372 60.1266 13.9092L56.73 11.708C57.7956 10.2405 58.9833 9.13456 60.2931 8.39018C61.6252 7.64581 63.1681 7.27362 64.9219 7.27362ZM63.7231 21.8528C65.5879 21.8528 67.0199 21.4699 68.0189 20.7043C69.0179 19.9387 69.6506 18.8115 69.917 17.3227H65.1883C63.5899 17.3227 62.4133 17.5247 61.6585 17.9288C60.9037 18.3117 60.5262 18.9072 60.5262 19.7153C60.5262 20.3534 60.7926 20.8744 61.3255 21.2785C61.8583 21.6614 62.6575 21.8528 63.7231 21.8528Z" fill="url(#paint3_linear_103_82)"/>
<defs>
<linearGradient id="paint0_linear_103_82" x1="0" y1="0" x2="16.2263" y2="46.3152" gradientUnits="userSpaceOnUse">
<stop stop-color="#3B95FF"/>
<stop offset="0.508333" stop-color="#18B6D6"/>
<stop offset="1" stop-color="#1BCF58"/>
</linearGradient>
<linearGradient id="paint1_linear_103_82" x1="0" y1="0" x2="16.2263" y2="46.3152" gradientUnits="userSpaceOnUse">
<stop stop-color="#3B95FF"/>
<stop offset="0.508333" stop-color="#18B6D6"/>
<stop offset="1" stop-color="#1BCF58"/>
</linearGradient>
<linearGradient id="paint2_linear_103_82" x1="0" y1="0" x2="16.2263" y2="46.3152" gradientUnits="userSpaceOnUse">
<stop stop-color="#3B95FF"/>
<stop offset="0.508333" stop-color="#18B6D6"/>
<stop offset="1" stop-color="#1BCF58"/>
</linearGradient>
<linearGradient id="paint3_linear_103_82" x1="0" y1="0" x2="16.2263" y2="46.3152" gradientUnits="userSpaceOnUse">
<stop stop-color="#3B95FF"/>
<stop offset="0.508333" stop-color="#18B6D6"/>
<stop offset="1" stop-color="#1BCF58"/>
</linearGradient>
</defs>
</svg>
